<svg width="48" height="48" viewBox="0 0 48 48" fill="none" xmlns="http://www.w3.org/2000/svg">
<circle cx="24" cy="24" r="24" fill="white"/>
<path d="M26.1429 19.9346L24.9554 16.0918C24.665 15.1521 23.335 15.1521 23.0446 16.0918L21.8571 19.9346C21.7276 20.3536 21.3402 20.6393 20.9017 20.6393H16.9563C15.9998 20.6393 15.5891 21.8533 16.3492 22.434L19.626 24.9372C19.9591 25.1916 20.0981 25.6267 19.9744 26.0271L18.7434 30.0108C18.4559 30.941 19.5322 31.6918 20.3059 31.1007L23.3929 28.7424C23.7513 28.4686 24.2487 28.4686 24.6071 28.7424L27.6941 31.1007C28.4678 31.6918 29.5441 30.941 29.2566 30.0108L28.0256 26.0271C27.9019 25.6267 28.0409 25.1916 28.374 24.9372L31.6508 22.434C32.4109 21.8533 32.0002 20.6393 31.0437 20.6393H27.0983C26.6598 20.6393 26.2724 20.3536 26.1429 19.9346Z" stroke="#050505" stroke-width="1.5"/>
</svg>
