<svg width="127" height="38" viewBox="0 0 127 38" fill="none" xmlns="http://www.w3.org/2000/svg">
<path d="M26.9927 4.66335C18.4637 1.25742 3 4.10891 3 19.3168C3 27.3168 12.3261 39.3564 27.8695 32.6238V15.7525M38.5507 15.2772C42.1908 14.0363 52.3406 14.0891 52.3406 17.8911C52.3406 21.6931 52.3406 23.8317 52.3406 23.8317M52.3406 23.8317V33.5743C41.7391 36.7426 36.7174 32.703 36.7174 30.1683C36.7174 27.6337 36.3986 23.4515 52.3406 23.8317ZM61.7464 3V33.5743C67.2464 35.4488 78.087 35.396 79.1232 24.7822C79.1232 21.2178 78.5493 14.897 68.6015 15.2772M114.514 35V15.8317C116.667 14.4851 120.014 13.9307 124 15.2772M96.5 14.4851C100.964 14.4851 106.384 17.495 106.384 24.7822C106.384 31.6753 100.964 35 96.5 35C92.0362 35 86.8551 32.2297 86.8551 24.7822C86.8551 17.0198 92.0362 14.4851 96.5 14.4851Z" stroke="white" stroke-width="4.46377" stroke-linecap="round" stroke-linejoin="round"/>
</svg>
