<svg width="24" height="16" viewBox="0 0 24 16" fill="none" xmlns="http://www.w3.org/2000/svg">
<path d="M0 0V16H24V0H0Z" fill="#012169"/>
<path d="M0 0L24 16L0 0ZM24 0L0 16L24 0Z" fill="black"/>
<path d="M24 0L0 16M0 0L24 16L0 0Z" stroke="white" stroke-width="3.2"/>
<path d="M0 0L24 16L0 0ZM24 0L0 16L24 0Z" fill="black"/>
<path d="M24 0L0 16M0 0L24 16L0 0Z" stroke="#C8102E" stroke-width="2.13333"/>
<path d="M12 0V16V0ZM0 8H24H0Z" fill="black"/>
<path d="M0 8H24M12 0V16V0Z" stroke="white" stroke-width="5.33333"/>
<path d="M12 0V16V0ZM0 8H24H0Z" fill="black"/>
<path d="M0 8H24M12 0V16V0Z" stroke="#C8102E" stroke-width="3.2"/>
</svg>
