<svg width="18" height="19" viewBox="0 0 18 19" fill="none" xmlns="http://www.w3.org/2000/svg">
<path d="M11.1429 5.93456L9.95542 2.09181C9.66505 1.15213 8.33495 1.15214 8.04458 2.09181L6.8571 5.93456C6.72762 6.35357 6.34024 6.63932 5.90168 6.63932H1.9563C0.999762 6.63932 0.58912 7.8533 1.34923 8.43398L4.62604 10.9372C4.95906 11.1916 5.09813 11.6267 4.9744 12.0271L3.74337 16.0108C3.45591 16.941 4.53216 17.6918 5.30585 17.1007L8.39294 14.7424C8.75134 14.4686 9.24866 14.4686 9.60706 14.7424L12.6941 17.1007C13.4678 17.6918 14.5441 16.941 14.2566 16.0108L13.0256 12.0271C12.9019 11.6267 13.0409 11.1916 13.374 10.9372L16.6508 8.43397C17.4109 7.8533 17.0002 6.63932 16.0437 6.63932H12.0983C11.6598 6.63932 11.2724 6.35357 11.1429 5.93456Z" stroke="#050505" stroke-width="1.5"/>
</svg>
