<svg width="19" height="19" viewBox="0 0 19 19" fill="none" xmlns="http://www.w3.org/2000/svg">
<path d="M11.7068 5.90983L10.4127 1.92705C10.1133 1.00574 8.80992 1.00574 8.51057 1.92705L7.21648 5.90983C7.08261 6.32185 6.69865 6.60081 6.26543 6.60081H2.07768C1.10896 6.60081 0.706182 7.84043 1.4899 8.40983L4.87785 10.8713C5.22834 11.126 5.375 11.5773 5.24112 11.9894L3.94704 15.9721C3.64769 16.8934 4.70217 17.6596 5.48588 17.0902L8.87384 14.6287C9.22432 14.374 9.69892 14.374 10.0494 14.6287L13.4374 17.0902C14.2211 17.6596 15.2756 16.8934 14.9762 15.9721L13.6821 11.9894C13.5482 11.5773 13.6949 11.126 14.0454 10.8713L17.4333 8.40983C18.2171 7.84043 17.8143 6.60081 16.8456 6.60081H12.6578C12.2246 6.60081 11.8406 6.32185 11.7068 5.90983Z" stroke="#050505" stroke-width="1.5"/>
</svg>
