<svg width="15" height="16" viewBox="0 0 15 16" fill="none" xmlns="http://www.w3.org/2000/svg">
<path d="M14.2933 7.36665L8.16668 13.4933C7.41612 14.2439 6.39814 14.6655 5.33668 14.6655C4.27523 14.6655 3.25724 14.2439 2.50668 13.4933C1.75612 12.7428 1.33446 11.7248 1.33446 10.6633C1.33446 9.60187 1.75612 8.58388 2.50668 7.83332L8.63335 1.70665C9.13372 1.20628 9.81238 0.925171 10.52 0.925171C11.2277 0.925171 11.9063 1.20628 12.4067 1.70665C12.9071 2.20703 13.1882 2.88568 13.1882 3.59332C13.1882 4.30096 12.9071 4.97961 12.4067 5.47999L6.27335 11.6067C6.02316 11.8568 5.68383 11.9974 5.33001 11.9974C4.9762 11.9974 4.63687 11.8568 4.38668 11.6067C4.13649 11.3565 3.99594 11.0171 3.99594 10.6633C3.99594 10.3095 4.13649 9.97018 4.38668 9.71999L10.0467 4.06665" stroke="#333333" stroke-linecap="round" stroke-linejoin="round"/>
</svg>
