<svg width="40" height="40" viewBox="0 0 40 40" fill="none" xmlns="http://www.w3.org/2000/svg">
<g clip-path="url(#clip0_46_1232)">
<path d="M38.3331 15.378C38.3723 13.4674 38.1373 11.5611 37.6351 9.71732C36.9613 7.42563 35.563 5.41402 33.6497 3.98399C29.8864 1.03532 26.3691 -0.186679 22.2571 0.0219876C20.088 0.172205 17.9327 0.480355 15.8084 0.943988C12.8011 1.54865 10.6164 2.60599 9.12907 4.17665C7.95039 5.43178 7.04027 6.91425 6.4544 8.53332C6.20607 9.2467 6.00387 9.97532 5.84907 10.7147L5.79573 10.9453C5.65532 11.4646 5.4658 11.9693 5.22973 12.4527C5.0924 12.7607 4.9544 13.0687 4.83507 13.386C4.68051 13.7381 4.61877 14.1239 4.65573 14.5067C4.79137 15.1022 5.13659 15.6291 5.6284 15.9913C5.95573 16.2913 6.1704 16.5013 6.1724 16.6933C6.14633 16.7928 6.1071 16.8883 6.05573 16.9773C5.25736 18.6606 4.27875 20.2524 3.13707 21.7247C2.6584 22.3093 2.15707 22.9913 2.25907 23.684C2.40477 24.2096 2.75187 24.6566 3.22507 24.928C3.44566 25.0799 3.6782 25.2137 3.9204 25.328C4.20773 25.4747 4.68973 25.72 4.7204 25.8967C4.76361 26.1211 4.73829 26.3534 4.64773 26.5633C4.5484 26.7713 4.44773 26.9513 4.35773 27.108C4.11307 27.5407 3.70307 28.266 4.31973 28.7847C4.46373 28.9113 4.7104 29.1053 4.93573 29.278C4.76923 29.5708 4.69445 29.9069 4.72107 30.2427C4.75725 30.5037 4.89926 30.7383 5.11373 30.8913C5.26307 30.9973 5.4224 31.0913 5.5804 31.1793C5.9724 31.4027 6.12507 31.5073 6.1804 31.7127C6.21637 31.9842 6.19178 32.2604 6.1084 32.5213C6.06973 32.6967 6.0324 32.8713 6.00907 33.046C5.94151 33.6524 6.01803 34.2661 6.2324 34.8373C6.57713 36.1043 7.85402 36.8792 9.13707 36.6C11.0406 36.141 12.918 35.5795 14.7611 34.918C16.2597 35.8033 17.2071 38.4813 17.4537 39.486C17.5268 39.7842 17.7941 39.9939 18.1011 39.994L34.8344 39.948C35.0455 39.9473 35.2438 39.8468 35.369 39.6769C35.4942 39.507 35.5316 39.2878 35.4697 39.086C35.3045 38.631 35.0758 38.2017 34.7904 37.8107C34.6328 37.5845 34.4903 37.3482 34.3637 37.1033C34.0632 36.4884 33.8113 35.8509 33.6104 35.1967C33.2299 33.9089 32.967 32.5893 32.8251 31.254C32.5888 29.2605 32.8899 27.24 33.6971 25.402C34.1905 24.3842 34.7977 23.4256 35.5071 22.5447C35.9071 22.0027 36.3251 21.4427 36.6997 20.8513C37.7518 19.2185 38.3182 17.3203 38.3331 15.378ZM34.4371 21.756C33.6668 22.7176 33.0088 23.7639 32.4757 24.8747C31.5736 26.9307 31.2376 29.1905 31.5024 31.42C31.6517 32.8344 31.9297 34.2322 32.3331 35.596C32.554 36.3145 32.8304 37.0149 33.1597 37.6907C33.3114 37.9888 33.4831 38.2764 33.6737 38.5513L33.7217 38.624L18.6051 38.6667C18.161 37.0847 17.3567 35.6271 16.2551 34.408C16.4251 34.3487 16.5884 34.2933 16.7357 34.24C17.2411 34.0633 17.6231 33.9293 17.8137 33.8693C20.6717 32.972 22.1011 31.6733 22.0624 30.0087C22.0408 29.6462 21.7428 29.3619 21.3797 29.3573C21.2029 29.3615 21.035 29.4358 20.913 29.5638C20.7909 29.6919 20.7248 29.8632 20.7291 30.04C20.7451 30.7267 20.1831 31.728 17.4131 32.5973C17.2131 32.66 16.8191 32.7973 16.2944 32.982C15.8191 33.1487 15.2357 33.3527 14.5977 33.5707C12.7198 34.2499 10.8066 34.8271 8.8664 35.3C8.24177 35.4204 7.63382 35.0251 7.4904 34.4053C7.34644 34.0311 7.29144 33.6285 7.32973 33.2293C7.34773 33.0913 7.37907 32.9533 7.40973 32.8147C7.54652 32.352 7.56803 31.8629 7.4724 31.39C7.28102 30.7779 6.83207 30.2797 6.24307 30.026L6.1004 29.944C6.17179 29.7984 6.25731 29.6602 6.35573 29.5313C6.46664 29.3897 6.5156 29.2092 6.4915 29.031C6.46739 28.8527 6.37227 28.6917 6.22773 28.5847C6.06773 28.466 5.6864 28.1807 5.41307 27.9613C5.44707 27.8993 5.48507 27.828 5.5204 27.7687C5.62307 27.588 5.73973 27.3793 5.85373 27.1413C6.06696 26.6751 6.12964 26.1541 6.03307 25.6507C5.87773 24.8327 5.09973 24.434 4.52573 24.1433C4.33221 24.0516 4.14668 23.9439 3.97107 23.8213C3.83288 23.7252 3.70187 23.6191 3.57907 23.504C3.57907 23.404 3.68573 23.16 4.1984 22.534C5.38957 20.9981 6.41086 19.3378 7.2444 17.582C7.40491 17.3071 7.49471 16.9967 7.50573 16.6787C7.43777 16.0076 7.0813 15.3993 6.52907 15.012C6.2624 14.7653 6.00507 14.532 5.9764 14.3267C5.97904 14.1654 6.01538 14.0064 6.08307 13.86C6.1924 13.5707 6.31973 13.2867 6.44707 13.0027C6.71884 12.4418 6.93563 11.856 7.0944 11.2533L7.1484 11.0207C7.29076 10.3363 7.47692 9.66181 7.70573 9.00132C8.22829 7.54935 9.04205 6.21948 10.0971 5.09332C11.3884 3.73332 13.3431 2.79999 16.0711 2.25132C18.1311 1.80048 20.2213 1.50057 22.3251 1.35399C26.0971 1.15399 29.3351 2.29665 32.8257 5.03532C34.5219 6.28585 35.7603 8.05898 36.3504 10.082C36.8181 11.8008 37.0368 13.5778 36.9997 15.3587C36.9881 17.057 36.4935 18.7169 35.5737 20.1447C35.2244 20.6927 34.8231 21.2333 34.4351 21.756H34.4371Z" fill="#028F68" stroke="#028F68" stroke-width="0.1"/>
<path d="M15.6665 11.3333H16.3332C16.7014 11.3333 16.9998 11.0348 16.9998 10.6667C16.9998 10.2985 16.7014 9.99999 16.3332 9.99999H15.6665C14.5619 9.99999 13.6665 10.8954 13.6665 12V12.6667C13.6665 13.7712 14.5619 14.6667 15.6665 14.6667H16.3332C16.7014 14.6667 16.9998 14.3682 16.9998 14C16.9998 13.6318 16.7014 13.3333 16.3332 13.3333H15.6665C15.2983 13.3333 14.9998 13.0348 14.9998 12.6667V12C14.9998 11.6318 15.2983 11.3333 15.6665 11.3333Z" fill="#028F68" stroke="#028F68" stroke-width="0.1"/>
<path d="M20.3331 9.33332C19.9649 9.33332 19.6664 9.6318 19.6664 9.99999V11.3333C19.6664 11.7015 19.3679 12 18.9997 12H18.3331C17.9649 12 17.6664 12.2985 17.6664 12.6667C17.6664 13.0348 17.9649 13.3333 18.3331 13.3333H18.9997C20.1043 13.3333 20.9997 12.4379 20.9997 11.3333V9.99999C20.9997 9.6318 20.7012 9.33332 20.3331 9.33332Z" fill="#028F68" stroke="#028F68" stroke-width="0.1"/>
<path d="M22.9997 9.33332V8.66666C22.9997 7.56209 22.1043 6.66666 20.9997 6.66666H19.6664C18.5618 6.66666 17.6664 7.56209 17.6664 8.66666V9.33332C17.6664 9.70151 17.9649 9.99999 18.333 9.99999C18.7012 9.99999 18.9997 9.70151 18.9997 9.33332V8.66666C18.9997 8.29847 19.2982 7.99999 19.6664 7.99999H20.9997C21.3679 7.99999 21.6664 8.29847 21.6664 8.66666V9.33332C21.6664 9.70151 21.9649 9.99999 22.3331 9.99999C22.7012 9.99999 22.9997 9.70151 22.9997 9.33332Z" fill="#028F68" stroke="#028F68" stroke-width="0.1"/>
<path d="M24.9996 14H24.3329C23.9647 14 23.6662 13.7015 23.6662 13.3333V12.6667C23.6662 12.2985 23.3677 12 22.9996 12C22.6314 12 22.3329 12.2985 22.3329 12.6667V13.3333C22.3329 14.4379 23.2283 15.3333 24.3329 15.3333H24.9996C25.3677 15.3333 25.6662 15.0348 25.6662 14.6666C25.6662 14.2985 25.3677 14 24.9996 14Z" fill="#028F68" stroke="#028F68" stroke-width="0.1"/>
<path d="M28.3333 12C28.3333 11.6318 28.0349 11.3333 27.6667 11.3333H27C26.6318 11.3333 26.3333 11.0348 26.3333 10.6667C26.3333 10.2985 26.6318 9.99999 27 9.99999H27.6667C28.0349 9.99999 28.3333 9.70151 28.3333 9.33332C28.3333 8.96513 28.0349 8.66666 27.6667 8.66666H27C25.8954 8.66666 25 9.56209 25 10.6667C25 11.7712 25.8954 12.6667 27 12.6667H27.6667C28.0349 12.6667 28.3333 12.3682 28.3333 12Z" fill="#028F68" stroke="#028F68" stroke-width="0.1"/>
<path d="M30.3331 12C29.9649 12 29.6664 12.2985 29.6664 12.6667V14C29.6664 14.3682 29.3679 14.6666 28.9997 14.6666H28.333C27.9649 14.6666 27.6664 14.9651 27.6664 15.3333C27.6664 15.7015 27.9649 16 28.333 16H28.9997C30.1043 16 30.9997 15.1046 30.9997 14V12.6667C30.9997 12.2985 30.7012 12 30.3331 12Z" fill="#028F68" stroke="#028F68" stroke-width="0.1"/>
<path d="M35.6399 14C35.6399 13.9893 35.6346 13.9807 35.6339 13.97C35.5742 12.7787 35.3846 11.5975 35.0686 10.4473C34.5533 8.6977 33.4775 7.16583 32.0066 6.08732C28.9913 3.72198 26.2573 2.66665 23.1393 2.66665C22.8939 2.66665 22.6459 2.67332 22.3919 2.68532C22.1646 2.69732 21.9373 2.72332 21.7099 2.74198C21.6946 2.74198 21.6819 2.73332 21.6666 2.73332C21.6316 2.73718 21.5971 2.74409 21.5633 2.75398C19.8062 2.92347 18.0601 3.19212 16.3333 3.55865C15.576 3.7078 14.8308 3.91303 14.1039 4.17265C14.0886 4.17865 14.0733 4.18198 14.0586 4.18865C12.9347 4.55836 11.9109 5.18179 11.0666 6.01065C10.2493 6.88843 9.59827 7.90743 9.14528 9.01798C9.12482 9.0556 9.10808 9.09512 9.09528 9.13598C9.05061 9.24532 8.99928 9.34865 8.95795 9.45998C8.75328 10.0153 8.43128 11.398 8.39061 11.572C8.24061 12.318 7.86861 14.8747 9.38128 16.4787C10.3413 17.496 11.8093 17.872 13.7373 17.5987L14.6346 17.4707C18.9119 16.8553 21.0586 16.5467 22.9059 18.3533C23.2613 18.7007 23.6253 19.0553 24.0039 19.4C23.5846 20.7187 23.0406 23.5333 25.2706 25.2C27.6666 27 27.6666 27.4873 27.6666 28.6667C27.6653 28.8983 27.7844 29.114 27.9812 29.2364C28.1779 29.3588 28.424 29.3702 28.6313 29.2667C28.8059 29.176 30.3333 28.3253 30.3333 25.3333C30.3333 23.6967 31.5533 22.282 32.7579 21.1113L32.7779 21.0933C33.4312 20.6449 33.9962 20.0799 34.4446 19.4267C34.9283 18.6642 35.2742 17.8228 35.4666 16.9407C35.506 16.8547 35.5265 16.7612 35.5266 16.6667C35.6103 16.2294 35.6572 15.7858 35.6666 15.3407C35.6733 14.8933 35.6633 14.45 35.6393 14.012C35.6398 14.008 35.64 14.004 35.6399 14ZM28.9999 25.3333C29.0113 25.8878 28.932 26.4404 28.7653 26.9693C28.4539 26.19 27.7326 25.3827 26.0666 24.1327C24.7419 23.1407 24.8353 21.4913 25.1213 20.3327C26.3703 21.3352 27.9197 21.8895 29.5213 21.9067C29.781 21.9047 30.0404 21.8896 30.2986 21.8613C29.4976 22.8454 29.0414 24.0651 28.9999 25.3333ZM33.3199 18.716C32.8534 19.4153 32.1935 19.9638 31.4206 20.2947C30.1971 20.6885 28.8779 20.6689 27.6666 20.2387V19.3333C27.6666 18.9651 27.9651 18.6667 28.3333 18.6667H30.3333C30.7015 18.6667 30.9999 18.3682 30.9999 18C30.9999 17.6318 30.7015 17.3333 30.3333 17.3333H28.3333C27.2287 17.3333 26.3333 18.2287 26.3333 19.3333V19.5407C25.4379 18.9045 24.6022 18.1882 23.8366 17.4007C23.0626 16.6161 22.077 16.0738 20.9999 15.84V15.3333C20.9999 14.9651 20.7015 14.6667 20.3333 14.6667C19.9651 14.6667 19.6666 14.9651 19.6666 15.3333V15.6773C17.9149 15.6808 16.167 15.8395 14.4433 16.1513L13.5486 16.2787C13.1464 16.3379 12.7395 16.3589 12.3333 16.3413V16C12.3333 15.6318 12.0348 15.3333 11.6666 15.3333C11.2984 15.3333 10.9999 15.6318 10.9999 16V16.032C10.7565 15.9169 10.5358 15.7588 10.3486 15.5653C9.96652 15.1233 9.72204 14.5792 9.64528 14H10.3333C11.4378 14 12.3333 13.1046 12.3333 12C12.3333 11.6318 12.0348 11.3333 11.6666 11.3333C11.2984 11.3333 10.9999 11.6318 10.9999 12C10.9999 12.3682 10.7015 12.6667 10.3333 12.6667H9.58595C9.60408 12.3938 9.63948 12.1224 9.69195 11.854C9.77928 11.4753 10.0253 10.454 10.1806 9.99998H12.3333C12.7015 9.99998 12.9999 9.70151 12.9999 9.33332C12.9999 8.96513 12.7015 8.66665 12.3333 8.66665H10.7879C11.126 8.03556 11.5444 7.45091 12.0326 6.92732C12.5047 6.45468 13.0582 6.07119 13.6666 5.79532V6.66665C13.6666 7.77122 14.562 8.66665 15.6666 8.66665C16.0348 8.66665 16.3333 8.36817 16.3333 7.99998C16.3333 7.63179 16.0348 7.33332 15.6666 7.33332C15.2984 7.33332 14.9999 7.03484 14.9999 6.66665V5.27332C15.5256 5.10928 16.0597 4.97353 16.5999 4.86665C17.1679 4.75198 17.7493 4.64198 18.3333 4.53732V4.66665C18.3333 5.03484 18.6318 5.33332 18.9999 5.33332C19.3681 5.33332 19.6666 5.03484 19.6666 4.66665V4.31532C20.1106 4.24865 20.5553 4.18732 20.9999 4.13865V4.66665C20.9999 5.03484 21.2984 5.33332 21.6666 5.33332C22.0348 5.33332 22.3333 5.03484 22.3333 4.66665V4.02798C22.3753 4.02798 22.4179 4.01998 22.4593 4.01732C22.8713 3.99998 23.2719 3.99998 23.6666 4.01665V6.66665C23.6666 7.03484 23.9651 7.33332 24.3333 7.33332H25.6666C26.0348 7.33332 26.3333 7.03484 26.3333 6.66665C26.3333 6.29846 26.0348 5.99998 25.6666 5.99998H24.9999V4.16198C26.1664 4.35966 27.2943 4.74035 28.3419 5.28998C28.3419 5.30532 28.3333 5.31798 28.3333 5.33332V7.33332C28.3333 7.70151 28.6318 7.99998 28.9999 7.99998C29.3681 7.99998 29.6666 7.70151 29.6666 7.33332V6.05998C30.1039 6.34332 30.5466 6.65265 30.9999 7.00132V8.66665C30.9999 9.03484 30.7015 9.33332 30.3333 9.33332C29.9651 9.33332 29.6666 9.63179 29.6666 9.99998C29.6666 10.3682 29.9651 10.6667 30.3333 10.6667C31.4379 10.6667 32.3333 9.77122 32.3333 8.66665V8.20998C33.0108 8.95355 33.5079 9.84323 33.7859 10.81C34.012 11.636 34.1646 12.4804 34.2419 13.3333H32.9999C32.6318 13.3333 32.3333 13.6318 32.3333 14C32.3333 14.3682 32.6318 14.6667 32.9999 14.6667H34.3193C34.3239 14.8847 34.3346 15.1013 34.3313 15.3213C34.3279 15.5533 34.3026 15.7767 34.2773 16H32.9999C32.6318 16 32.3333 16.2985 32.3333 16.6667C32.3333 17.0348 32.6318 17.3333 32.9999 17.3333H33.9759C33.8123 17.8184 33.5921 18.2824 33.3199 18.716Z" fill="#028F68" stroke="#028F68" stroke-width="0.1"/>
</g>
<defs>
<clipPath id="clip0_46_1232">
<rect width="40" height="40" fill="white"/>
</clipPath>
</defs>
</svg>
