<svg width="60" height="60" viewBox="0 0 60 60" fill="none" xmlns="http://www.w3.org/2000/svg">
<g clip-path="url(#clip0_46_1083)">
<path d="M53 8V17H1V8C1 5.79086 2.79086 4 5 4H49C51.2091 4 53 5.79086 53 8Z" fill="#63CCAF"/>
<path d="M49 4H46C48.2091 4 50 5.79086 50 8V17H53V8C53 5.79086 51.2091 4 49 4Z" fill="#4EBFA0"/>
<path d="M53 17V27.59C46.0697 21.3845 35.5518 21.4844 28.7406 27.8205C21.9295 34.1567 21.0708 44.6399 26.76 52H5C2.79086 52 1 50.2091 1 48V17H53Z" fill="#D3F4EB"/>
<path d="M50 17V25.432C51.0704 26.048 52.0756 26.771 53 27.59V17H50Z" fill="#B5FFEA"/>
<path d="M41 59C50.9411 59 59 50.9411 59 41C59 31.0589 50.9411 23 41 23C31.0589 23 23 31.0589 23 41C23 50.9411 31.0589 59 41 59Z" fill="#63CCAF"/>
<path d="M41 23C40.493 23 39.994 23.034 39.5 23.076C48.8273 23.8462 56.005 31.641 56.005 41C56.005 50.359 48.8273 58.1538 39.5 58.924C40 58.965 40.493 59 41 59C50.9411 59 59 50.9411 59 41C59 31.0589 50.9411 23 41 23Z" fill="#4EBFA0"/>
<path d="M41 55C48.732 55 55 48.732 55 41C55 33.268 48.732 27 41 27C33.268 27 27 33.268 27 41C27 48.732 33.268 55 41 55Z" fill="#D3F4EB"/>
<path d="M41 27C40.4989 27.0009 39.9982 27.0286 39.5 27.083C46.6005 27.8597 51.9778 33.8572 51.9778 41C51.9778 48.1429 46.6005 54.1404 39.5 54.917C44.6557 55.4809 49.7006 53.1483 52.6107 48.8552C55.5207 44.5621 55.8189 39.012 53.3856 34.4318C50.9524 29.8516 46.1864 26.9918 41 27V27Z" fill="#B5FFEA"/>
<path d="M10 21H6C5.44772 21 5 21.4477 5 22V25C5 25.5523 5.44772 26 6 26H10C10.5523 26 11 25.5523 11 25V22C11 21.4477 10.5523 21 10 21Z" fill="#B5FFEA"/>
<path d="M21 21H17C16.4477 21 16 21.4477 16 22V25C16 25.5523 16.4477 26 17 26H21C21.5523 26 22 25.5523 22 25V22C22 21.4477 21.5523 21 21 21Z" fill="#B5FFEA"/>
<path d="M33 22V24.88C32.3284 25.2083 31.6802 25.5825 31.06 26H28C27.4477 26 27 25.5523 27 25V22C27 21.4477 27.4477 21 28 21H32C32.5523 21 33 21.4477 33 22Z" fill="#B5FFEA"/>
<path d="M10 31H6C5.44772 31 5 31.4477 5 32V35C5 35.5523 5.44772 36 6 36H10C10.5523 36 11 35.5523 11 35V32C11 31.4477 10.5523 31 10 31Z" fill="#B5FFEA"/>
<path d="M21 31H17C16.4477 31 16 31.4477 16 32V35C16 35.5523 16.4477 36 17 36H21C21.5523 36 22 35.5523 22 35V32C22 31.4477 21.5523 31 21 31Z" fill="#B5FFEA"/>
<path d="M21 41H17C16.4477 41 16 41.4477 16 42V45C16 45.5523 16.4477 46 17 46H21C21.5523 46 22 45.5523 22 45V42C22 41.4477 21.5523 41 21 41Z" fill="#B5FFEA"/>
<path d="M10 41H6C5.44772 41 5 41.4477 5 42V45C5 45.5523 5.44772 46 6 46H10C10.5523 46 11 45.5523 11 45V42C11 41.4477 10.5523 41 10 41Z" fill="#B5FFEA"/>
<path d="M42 4C43.78 4.69615 44.9645 6.39705 45 8.308C44.833 10.9468 42.6441 13.0016 40 13.0016C37.3559 13.0016 35.167 10.9468 35 8.308C35.0355 6.39705 36.22 4.69615 38 4H42Z" fill="#4EBFA0"/>
<path d="M16 4C17.78 4.69615 18.9645 6.39705 19 8.308C18.9114 10.9828 16.675 13.0814 14 13C11.325 13.0814 9.08861 10.9828 9 8.308C9.03554 6.39705 10.22 4.69615 12 4H16Z" fill="#4EBFA0"/>
<path d="M42 3C42 1.89543 41.1046 1 40 1C38.8954 1 38 1.89543 38 3V7C38 8.10457 38.8954 9 40 9C41.1046 9 42 8.10457 42 7V3Z" fill="#D3F4EB"/>
<path d="M16 3C16 1.89543 15.1046 1 14 1C12.8954 1 12 1.89543 12 3V7C12 8.10457 12.8954 9 14 9C15.1046 9 16 8.10457 16 7V3Z" fill="#D3F4EB"/>
<path d="M5 52H8C5.79086 52 4 50.2091 4 48V8C4 5.79086 5.79086 4 8 4H5C2.79086 4 1 5.79086 1 8V48C1 50.2091 2.79086 52 5 52Z" fill="white"/>
<path d="M0 40H2V48H0V40Z" fill="white"/>
<path d="M1.02 45C0.467712 45.0028 0.0177583 44.5573 0.0149969 44.005C0.0122355 43.4527 0.457712 43.0028 1.01 43H1.02C1.57228 43 2.02 43.4477 2.02 44C2.02 44.5523 1.57228 45 1.02 45V45Z" fill="#3CA69B"/>
<path d="M54 27.182V8C53.9967 5.23995 51.7601 3.00331 49 3H43C43 1.34315 41.6569 0 40 0C38.3431 0 37 1.34315 37 3H17C17 1.34315 15.6569 6e-08 14 6e-08C12.3431 6e-08 11 1.34315 11 3H5C2.23995 3.00331 0.00330612 5.23995 0 8V40C0 40.5523 0.447715 41 1 41C1.55228 41 2 40.5523 2 40V18H52V25.537C46.7679 21.7798 39.9788 20.956 34 23.353V22C34 20.8954 33.1046 20 32 20H28C26.8954 20 26 20.8954 26 22V25C26 26.1046 26.8954 27 28 27H28.2C21.4261 33.1393 20.0252 43.2504 24.875 51H5C3.34315 51 2 49.6569 2 48C2 47.4477 1.55228 47 1 47C0.447715 47 0 47.4477 0 48C0.00330612 50.7601 2.23995 52.9967 5 53H26.285C30.7551 58.5009 37.9177 61.053 44.8591 59.6181C51.8005 58.1832 57.3641 53.0003 59.2868 46.1779C61.2094 39.3555 59.1707 32.0303 54 27.182ZM37 5.869V7C37 8.65685 38.3431 10 40 10C41.6569 10 43 8.65685 43 7V5.869C43.6348 6.52301 43.993 7.3966 44 8.308C43.8318 10.3924 42.0912 11.9982 40 11.9982C37.9088 11.9982 36.1682 10.3924 36 8.308C36.007 7.3966 36.3652 6.52301 37 5.869ZM39 3C39 2.44772 39.4477 2 40 2C40.5523 2 41 2.44772 41 3V7C41 7.55228 40.5523 8 40 8C39.4477 8 39 7.55228 39 7V3ZM11 5.869V7C11 8.65685 12.3431 10 14 10C15.6569 10 17 8.65685 17 7V5.869C17.6348 6.52301 17.993 7.3966 18 8.308C17.9096 10.4296 16.122 12.0795 14 12C11.878 12.0795 10.0904 10.4296 10 8.308C10.007 7.3966 10.3652 6.52301 11 5.869ZM13 3C13 2.44772 13.4477 2 14 2C14.5523 2 15 2.44772 15 3V7C15 7.55228 14.5523 8 14 8C13.4477 8 13 7.55228 13 7V3ZM2 16V8C2 6.34315 3.34315 5 5 5H9.134C8.40527 5.94944 8.00703 7.11115 8 8.308C8.09102 11.534 10.7737 14.079 14 14C17.2263 14.079 19.909 11.534 20 8.308C19.993 7.11115 19.5947 5.94944 18.866 5H35.134C34.4053 5.94944 34.007 7.11115 34 8.308C34.165 11.5014 36.8023 14.0061 40 14.0061C43.1977 14.0061 45.835 11.5014 46 8.308C45.993 7.11115 45.5947 5.94944 44.866 5H49C50.6569 5 52 6.34315 52 8V16H2ZM28 25V22H32V24.273C31.586 24.497 31.189 24.747 30.794 25H28ZM41 58C31.6112 58 24 50.3888 24 41C24 31.6112 31.6112 24 41 24C50.3888 24 58 31.6112 58 41C57.9895 50.3845 50.3845 57.9895 41 58Z" fill="#3CA69B"/>
<path d="M41 26C32.7157 26 26 32.7157 26 41C26 49.2843 32.7157 56 41 56C49.2843 56 56 49.2843 56 41C55.9715 32.7276 49.2724 26.0285 41 26ZM48.343 51.718L47.866 50.892C47.6886 50.58 47.3577 50.387 46.9989 50.3863C46.64 50.3855 46.3083 50.577 46.1295 50.8882C45.9508 51.1994 45.9525 51.5824 46.134 51.892L46.606 52.711C45.1613 53.4072 43.5991 53.8271 42 53.949V53C42 52.4477 41.5523 52 41 52C40.4477 52 40 52.4477 40 53V53.949C38.4009 53.8271 36.8387 53.4072 35.394 52.711L35.866 51.892C36.0475 51.5824 36.0492 51.1994 35.8705 50.8882C35.6917 50.577 35.36 50.3855 35.0011 50.3863C34.6423 50.387 34.3114 50.58 34.134 50.892L33.657 51.718C32.3354 50.8084 31.1916 49.6646 30.282 48.343L31.108 47.866C31.5822 47.588 31.7431 46.9794 31.4683 46.5033C31.1934 46.0273 30.5859 45.8623 30.108 46.134L29.289 46.606C28.5928 45.1613 28.1729 43.5991 28.051 42H29C29.5523 42 30 41.5523 30 41C30 40.4477 29.5523 40 29 40H28.051C28.1729 38.4009 28.5928 36.8387 29.289 35.394L30.108 35.866C30.4176 36.0475 30.8007 36.0492 31.1118 35.8705C31.423 35.6917 31.6145 35.36 31.6137 35.0011C31.613 34.6423 31.42 34.3114 31.108 34.134L30.282 33.657C31.1916 32.3354 32.3354 31.1916 33.657 30.282L34.134 31.108C34.412 31.5822 35.0206 31.7431 35.4967 31.4683C35.9727 31.1934 36.1377 30.5859 35.866 30.108L35.394 29.289C36.8387 28.5928 38.4009 28.1729 40 28.051V29C40 29.5523 40.4477 30 41 30C41.5523 30 42 29.5523 42 29V28.051C43.5991 28.1729 45.1613 28.5928 46.606 29.289L46.134 30.108C45.9525 30.4176 45.9508 30.8007 46.1295 31.1118C46.3083 31.423 46.64 31.6145 46.9989 31.6137C47.3577 31.613 47.6886 31.42 47.866 31.108L48.343 30.282C49.6646 31.1916 50.8084 32.3354 51.718 33.657L50.892 34.134C50.58 34.3114 50.387 34.6423 50.3863 35.0011C50.3855 35.36 50.577 35.6917 50.8882 35.8705C51.1994 36.0492 51.5824 36.0475 51.892 35.866L52.711 35.394C53.4072 36.8387 53.8271 38.4009 53.949 40H53C52.4477 40 52 40.4477 52 41C52 41.5523 52.4477 42 53 42H53.949C53.8271 43.5991 53.4072 45.1613 52.711 46.606L51.892 46.134C51.5824 45.9525 51.1994 45.9508 50.8882 46.1295C50.577 46.3083 50.3855 46.64 50.3863 46.9989C50.387 47.3577 50.58 47.6886 50.892 47.866L51.718 48.343C50.8084 49.6646 49.6646 50.8084 48.343 51.718Z" fill="#3CA69B"/>
<path d="M42.186 40.771L44.919 34.394C45.1272 33.8885 44.8909 33.3094 44.3884 33.094C43.8859 32.8785 43.3036 33.1066 43.081 33.606L40.081 40.606C39.9204 40.9815 40.0043 41.417 40.293 41.706L44.293 45.706C44.6854 46.0849 45.3091 46.0795 45.6948 45.6938C46.0806 45.308 46.086 44.6843 45.707 44.292L42.186 40.771Z" fill="#3CA69B"/>
<path d="M6 27H10C11.1046 27 12 26.1046 12 25V22C12 20.8954 11.1046 20 10 20H6C4.89543 20 4 20.8954 4 22V25C4 26.1046 4.89543 27 6 27ZM6 22H10V25H6V22Z" fill="#3CA69B"/>
<path d="M17 27H21C22.1046 27 23 26.1046 23 25V22C23 20.8954 22.1046 20 21 20H17C15.8954 20 15 20.8954 15 22V25C15 26.1046 15.8954 27 17 27ZM17 22H21V25H17V22Z" fill="#3CA69B"/>
<path d="M4 35C4 36.1046 4.89543 37 6 37H10C11.1046 37 12 36.1046 12 35V32C12 30.8954 11.1046 30 10 30H6C4.89543 30 4 30.8954 4 32V35ZM6 32H10V35H6V32Z" fill="#3CA69B"/>
<path d="M15 35C15 36.1046 15.8954 37 17 37H19C19.5523 37 20 36.5523 20 36C20 35.4477 19.5523 35 19 35H17V32H21C21.5523 32 22 31.5523 22 31C22 30.4477 21.5523 30 21 30H17C15.8954 30 15 30.8954 15 32V35Z" fill="#3CA69B"/>
<path d="M4 45C4 46.1046 4.89543 47 6 47H10C11.1046 47 12 46.1046 12 45V42C12 40.8954 11.1046 40 10 40H6C4.89543 40 4 40.8954 4 42V45ZM6 42H10V45H6V42Z" fill="#3CA69B"/>
<path d="M15 45C15 46.1046 15.8954 47 17 47H20C20.5523 47 21 46.5523 21 46C21 45.4477 20.5523 45 20 45H17V42H19C19.5523 42 20 41.5523 20 41C20 40.4477 19.5523 40 19 40H17C15.8954 40 15 40.8954 15 42V45Z" fill="#3CA69B"/>
</g>
<defs>
<clipPath id="clip0_46_1083">
<rect width="60" height="60" fill="white"/>
</clipPath>
</defs>
</svg>
