<svg width="40" height="40" viewBox="0 0 40 40" fill="none" xmlns="http://www.w3.org/2000/svg">
<path d="M31.9399 24.5062C31.9408 24.508 31.9417 24.5099 31.9423 24.5114C32.0751 24.8086 32.3568 24.9829 32.6555 24.9829C32.7623 24.9829 32.8713 24.9606 32.9763 24.9139C33.3761 24.7363 33.5488 24.2807 33.37 23.8766C33.1914 23.4726 32.7379 23.2941 32.3375 23.4701C31.9372 23.6465 31.7626 24.1015 31.9399 24.5062Z" fill="#028F68"/>
<path d="M34.0953 26.7831C34.0282 26.3571 33.6281 26.0659 33.2017 26.1337C32.7757 26.2008 32.4849 26.6009 32.5523 27.0272C32.7275 28.1371 32.7757 29.2684 32.6952 30.3893C32.5084 32.9879 31.1949 35.3594 29.0913 36.8963L28.5631 37.282C27.5282 38.0379 26.3042 38.4374 25.0227 38.4374C24.5589 38.4374 24.0947 38.3834 23.6437 38.2769L21.5733 37.788C17.5719 36.8432 13.922 34.6227 11.296 31.5359C10.1287 30.1635 9.60224 29.1653 9.19788 28.1371C9.23023 28.0328 9.24183 27.9202 9.22657 27.8045C9.22229 27.7709 8.83777 24.3966 13.5964 22.2305C16.8599 20.7449 18.3867 18.2043 18.918 17.109C22.4959 17.6028 23.7273 18.6099 23.8188 18.6889C24.0077 18.8891 24.2683 18.9538 24.5381 18.8928C24.6031 18.8781 24.6675 18.8641 24.7316 18.8507C27.235 18.3252 29.817 19.6585 30.8723 22.0196C31.0484 22.4136 31.5105 22.5903 31.9044 22.4142C32.2984 22.2381 32.4748 21.7761 32.299 21.3821C31.7012 20.0451 30.6959 18.9193 29.4444 18.1714C29.445 18.1686 29.4463 18.1662 29.4472 18.1634C29.6046 17.6602 29.6843 17.1353 29.6843 16.6037C29.6843 16.4972 29.68 16.3916 29.6739 16.2866H30.2159C30.6471 16.2866 30.9972 15.9369 30.9972 15.5053C30.9972 15.0738 30.6471 14.7241 30.2159 14.7241H29.3327C29.1319 14.2059 28.8515 13.7271 28.5051 13.3038L28.8588 12.9501C29.164 12.6449 29.164 12.1502 28.8588 11.8451C28.5536 11.5402 28.0592 11.5402 27.7541 11.8451L27.3451 12.254C26.7116 11.8335 25.9813 11.5475 25.1952 11.437C26.2303 10.6091 27.5902 10.217 29.2473 10.2734C29.4588 10.2814 29.6645 10.2014 29.817 10.0543C29.9693 9.90721 30.0551 9.70457 30.0551 9.49278V6.51671C30.0551 6.11022 29.7435 5.77178 29.3382 5.73821C29.2116 5.72783 27.7486 5.61644 25.8464 5.84532C24.9959 4.19952 23.7987 2.97698 22.4217 2.29827L22.9747 1.47278C23.2149 1.11419 23.1188 0.628966 22.7602 0.389098C22.4019 0.148925 21.9167 0.24475 21.6765 0.603331L20.8849 1.78527C20.5473 1.72302 20.2034 1.68975 19.8552 1.68975C19.6544 1.68975 19.4545 1.70105 19.2565 1.7221V0.781248C19.2565 0.349731 18.9067 0 18.4752 0C18.0437 0 17.694 0.349731 17.694 0.781248V2.11731C16.9609 2.41577 16.2667 2.86651 15.6325 3.46343C15.158 3.9099 14.731 4.42626 14.3566 4.99907C14.0636 4.42107 13.4636 4.02343 12.7724 4.02343H10.6517C9.67273 4.02343 8.87623 4.81994 8.87623 5.79894V13.7851C8.48316 14.0905 8.10413 14.4485 7.74158 14.862C6.02894 16.8155 5.68806 19.3753 5.70362 21.1785C5.72132 23.2183 6.21449 25.2978 6.99391 26.6311C7.1117 26.9467 7.2176 27.2509 7.32044 27.546C7.84565 29.0518 8.34156 30.4742 10.1058 32.5482C12.946 35.8871 16.891 38.2879 21.2145 39.3087L23.2845 39.7976C23.8533 39.9319 24.438 39.9999 25.0227 39.9999C26.6377 39.9999 28.1807 39.4964 29.4844 38.5439L30.0127 38.1582C32.4882 36.3497 34.034 33.5592 34.2537 30.5013C34.3428 29.2617 34.2894 28.0108 34.0953 26.7831ZM24.5616 17.2915C24.2467 17.0724 23.7099 16.7602 22.871 16.4471C22.9356 15.6952 23.1538 14.2782 23.8875 12.9934C24.0776 12.9635 24.2717 12.9477 24.4655 12.9477C26.4815 12.9477 28.1218 14.588 28.1218 16.604C28.1218 16.9143 28.0824 17.2207 28.0061 17.5177C26.8971 17.1582 25.7094 17.0773 24.5616 17.2915ZM28.4926 7.26988V8.71519C26.5572 8.79912 24.9605 9.44548 23.738 10.6412C22.021 12.3211 21.5032 14.6548 21.3478 15.9808C20.6004 15.7943 19.713 15.6262 18.6629 15.5008C18.4255 15.2807 18.189 15.0732 17.9534 14.8773C17.9546 14.8584 17.9561 14.8398 17.9561 14.8205C17.9561 12.7221 18.6342 11.0327 19.9712 9.79948C22.5139 7.45421 26.8007 7.2534 28.4926 7.26988ZM19.8552 3.25225C20.2467 3.25225 20.6325 3.30993 21.0079 3.41949C21.0082 3.41949 21.0088 3.41979 21.0091 3.41979C22.2542 3.78356 23.3821 4.72869 24.2107 6.11724C22.3946 6.50878 20.4295 7.2531 18.9165 8.64653C17.4758 9.97312 16.6469 11.6968 16.4437 13.7802C15.8043 13.3835 15.1717 13.0786 14.5479 12.8671V8.34959C14.5613 8.31816 14.5738 8.28612 14.5836 8.25255C15.4451 5.26183 17.5636 3.25225 19.8552 3.25225ZM10.4387 5.79894C10.4387 5.68145 10.5342 5.58593 10.6517 5.58593H12.7724C12.8899 5.58593 12.9854 5.68145 12.9854 5.79894V12.5308C12.7236 12.5079 12.4639 12.5018 12.2057 12.5134C11.5944 12.5406 11.0048 12.6657 10.4387 12.886V5.79894ZM8.91651 15.8923C9.92633 14.7403 11.0564 14.1287 12.2753 14.0744C13.8295 14.0048 15.6179 14.8495 17.4623 16.5207C16.9853 17.4566 15.6581 19.5752 12.9491 20.8084C9.95929 22.1691 8.68305 24.0155 8.13862 25.3244C8.12946 25.3466 8.12092 25.3683 8.11176 25.3903C7.12422 23.2025 6.59321 18.5421 8.91651 15.8923Z" fill="#028F68"/>
<path d="M15.6108 31.4193C15.2788 31.1437 14.7862 31.1898 14.5107 31.5218C14.2354 31.8539 14.2812 32.3464 14.6132 32.6217C16.7265 34.3752 19.2577 35.6356 21.9325 36.2673C21.993 36.2817 22.0534 36.2884 22.1129 36.2884C22.4669 36.2884 22.7876 36.0461 22.8725 35.6866C22.9717 35.2667 22.7117 34.8458 22.2917 34.7466C19.85 34.1702 17.5398 33.0193 15.6108 31.4193Z" fill="#028F68"/>
<path d="M12.568 29.4247C12.2418 29.7073 12.2048 30.1983 12.4871 30.5243C12.6419 30.7098 12.864 30.8053 13.088 30.8053C13.2644 30.8053 13.4417 30.7461 13.5876 30.6244C13.919 30.3482 13.9639 29.8556 13.6877 29.5242L13.6718 29.5056C13.3892 29.1794 12.8939 29.1421 12.568 29.4247Z" fill="#028F68"/>
</svg>
