<svg width="34" height="34" viewBox="0 0 34 34" fill="none" xmlns="http://www.w3.org/2000/svg">
<path d="M31.2657 11.6503C31.9351 11.6584 32.4735 12.2022 32.4735 12.8702V23.6579C32.4735 29.8307 28.6143 33.6667 22.4279 33.6667H17.5082C16.8305 33.6667 16.2789 33.1229 16.2709 32.4468C16.2788 31.7683 16.8281 31.2202 17.5082 31.2123H22.4279C27.3034 31.2123 29.9989 28.5374 30.0431 23.6579V12.8702C30.0431 12.1965 30.5905 11.6503 31.2657 11.6503ZM21.2053 1.62683C21.8829 1.63488 22.4279 2.18526 22.4279 2.86139C22.4279 3.18749 22.2971 3.50001 22.0646 3.72921C21.8321 3.9584 21.5174 4.08519 21.1906 4.08126H10.3643C5.48876 4.08126 2.79323 6.77084 2.79323 11.6503V23.6579C2.79323 28.5374 5.48876 31.2123 10.3643 31.2123C11.0443 31.2202 11.5936 31.7683 11.6016 32.4468C11.5935 33.1229 11.0419 33.6667 10.3643 33.6667C4.17782 33.6667 0.333374 29.8307 0.333374 23.6579V11.6503C0.333374 5.4628 4.17782 1.62683 10.3643 1.62683H21.2053Z" fill="#028F68"/>
<path d="M23.0676 12.7903C23.4978 12.4973 24.0773 12.5057 24.5017 12.8314C24.9792 13.1979 25.118 13.8568 24.8288 14.384L20.1153 20.4539C19.9089 20.7081 19.6146 20.8759 19.2904 20.9243C18.9677 20.957 18.6451 20.862 18.3919 20.6597L13.8699 17.1177L9.80451 22.394C9.61065 22.6571 9.31913 22.8317 8.99522 22.8787C8.6713 22.9257 8.34204 22.841 8.08114 22.6438C7.5487 22.2273 7.45027 21.4613 7.86019 20.9243L12.6768 14.6633C12.8777 14.4037 13.1739 14.2345 13.5 14.1932C13.8261 14.1518 14.1553 14.2416 14.4149 14.4428L18.9369 17.9848L22.9139 12.9143L23.0676 12.7903ZM27.6686 0.666647C29.2863 -0.00679085 31.1514 0.359257 32.3929 1.59388C33.6345 2.82851 34.0077 4.68818 33.3383 6.30462C32.6689 7.92106 31.0889 8.97544 29.336 8.97544C26.9501 8.97544 25.0136 7.04983 25.0055 4.66917L25.0153 4.36242C25.1252 2.73742 26.146 1.30047 27.6686 0.666647ZM29.336 2.80263C28.3029 2.80263 27.4654 3.6383 27.4654 4.66917C27.4654 5.70003 28.3029 6.53571 29.336 6.53571C30.3692 6.53571 31.2067 5.70003 31.2067 4.66917C31.2067 3.6383 30.3692 2.80263 29.336 2.80263Z" fill="#028F68" fill-opacity="0.4"/>
</svg>
