<svg width="70" height="95" viewBox="0 0 70 95" fill="none" xmlns="http://www.w3.org/2000/svg">
<path d="M35 35V70C25.7174 70 16.815 66.3125 10.2513 59.7487C3.68749 53.185 0 44.2826 0 35H35Z" fill="#63CCAF"/>
<path d="M35 35H0V0C9.28258 0 18.185 3.68749 24.7487 10.2513C31.3125 16.815 35 25.7174 35 35V35Z" fill="#028F68"/>
<path d="M70 35C70 44.2826 66.3125 53.185 59.7487 59.7487C53.185 66.3125 44.2826 70 35 70V70C35 60.7174 38.6875 51.815 45.2513 45.2513C51.815 38.6875 60.7174 35 70 35V35Z" fill="#028F68"/>
<path d="M70 35C60.7174 35 51.815 31.3125 45.2513 24.7487C38.6875 18.185 35 9.28258 35 0V0C44.2826 0 53.185 3.68749 59.7487 10.2513C66.3125 16.815 70 25.7174 70 35V35Z" fill="#63CCAF"/>
<path d="M11.7052 81L15.0223 90.7404L18.3291 81H23.0445V95H19.4519V91.7308L19.7989 85.0385L16.2062 95H13.8383L10.2354 85.0288L10.5825 91.7308V95H7V81H11.7052Z" fill="#333333"/>
<path d="M34.5472 89.0673H28.9132V92.4038H35.5678V95H25.3308V81H35.5882V83.6058H28.9132V86.5577H34.5472V89.0673Z" fill="#333333"/>
<path d="M37.0273 95V81H41.8142C43.1274 81 44.3079 81.2821 45.3558 81.8462C46.4037 82.4038 47.2202 83.1955 47.8053 84.2212C48.3973 85.2404 48.6967 86.3846 48.7035 87.6538V88.2981C48.7035 89.5801 48.4143 90.7308 47.836 91.75C47.2644 92.7628 46.4547 93.5577 45.4068 94.1346C44.3658 94.7051 43.2022 94.9936 41.9162 95H37.0273ZM40.6098 83.6058V92.4038H41.855C42.8824 92.4038 43.6717 92.0609 44.2229 91.375C44.774 90.6827 45.0496 89.6571 45.0496 88.2981V87.6923C45.0496 86.3397 44.774 85.3205 44.2229 84.6346C43.6717 83.9487 42.8688 83.6058 41.8142 83.6058H40.6098Z" fill="#333333"/>
<path d="M58.2846 92.3846H53.3753L52.518 95H48.6906L54.1408 81H57.5089L63 95H59.1522L58.2846 92.3846ZM54.2327 89.7788H57.4273L55.8249 84.9231L54.2327 89.7788Z" fill="#333333"/>
</svg>
