<svg width="16" height="20" viewBox="0 0 16 20" fill="none" xmlns="http://www.w3.org/2000/svg">
<path fill-rule="evenodd" clip-rule="evenodd" d="M0.91736 11.4893V11.3068C0.944131 10.7669 1.11717 10.2437 1.41863 9.79134C1.92042 9.24788 2.26392 8.58192 2.4131 7.86331C2.4131 7.30792 2.4131 6.74459 2.46161 6.18919C2.71225 3.51535 5.35607 1.66667 7.96755 1.66667H8.03223C10.6437 1.66667 13.2875 3.51535 13.5463 6.18919C13.5948 6.74459 13.5463 7.30792 13.5867 7.86331C13.7379 8.58359 14.081 9.25162 14.5812 9.79927C14.8849 10.2477 15.0582 10.7689 15.0824 11.3068V11.4813C15.1005 12.2067 14.8506 12.914 14.379 13.4728C13.7558 14.1262 12.9101 14.5327 12.002 14.6154C9.33917 14.901 6.65253 14.901 3.98969 14.6154C3.08263 14.5292 2.23814 14.1232 1.61268 13.4728C1.14834 12.9136 0.901872 12.2105 0.91736 11.4893Z" stroke="#333333" stroke-width="1.5" stroke-linecap="round" stroke-linejoin="round"/>
<path opacity="0.4" d="M5.96237 17.3765C6.37843 17.8987 6.98942 18.2367 7.66012 18.3156C8.33081 18.3945 9.0059 18.2079 9.53598 17.797C9.69901 17.6755 9.84571 17.5342 9.97257 17.3765" stroke="#333333" stroke-width="1.5" stroke-linecap="round" stroke-linejoin="round"/>
</svg>
