<svg width="34" height="36" viewBox="0 0 34 36" fill="none" xmlns="http://www.w3.org/2000/svg">
<path fill-rule="evenodd" clip-rule="evenodd" d="M31.6777 10.7059L30.6403 8.90577C29.7627 7.38257 27.8178 6.8571 26.2925 7.73109C25.5665 8.15881 24.7001 8.28015 23.8845 8.06838C23.0688 7.8566 22.3709 7.32909 21.9447 6.60218C21.6705 6.14015 21.5231 5.61389 21.5175 5.07663C21.5423 4.21527 21.2173 3.38057 20.6167 2.76268C20.016 2.14479 19.1908 1.79634 18.3291 1.79669H16.2391C15.3949 1.79669 14.5855 2.13309 13.99 2.73147C13.3944 3.32986 13.0619 4.14089 13.066 4.9851C13.041 6.72811 11.6208 8.12792 9.87757 8.12774C9.34031 8.12216 8.81405 7.97481 8.35202 7.70058C6.82673 6.82659 4.88181 7.35206 4.00419 8.87526L2.89054 10.7059C2.01398 12.2272 2.53229 14.1709 4.04996 15.0537C5.03646 15.6233 5.64418 16.6759 5.64418 17.815C5.64418 18.9541 5.03646 20.0067 4.04996 20.5763C2.53422 21.4531 2.01534 23.3921 2.89054 24.9088L3.94317 26.7242C4.35437 27.4662 5.0443 28.0137 5.86028 28.2456C6.67626 28.4775 7.55102 28.3747 8.29099 27.9599C9.01843 27.5355 9.88527 27.4192 10.6989 27.6369C11.5124 27.8546 12.2053 28.3883 12.6236 29.1193C12.8978 29.5814 13.0451 30.1076 13.0507 30.6449C13.0507 32.4058 14.4782 33.8333 16.2391 33.8333H18.3291C20.0841 33.8333 21.5091 32.4151 21.5175 30.6602C21.5135 29.8133 21.8481 28.9999 22.4469 28.4011C23.0457 27.8023 23.8591 27.4677 24.7059 27.4718C25.2419 27.4861 25.766 27.6328 26.2315 27.8989C27.7528 28.7755 29.6965 28.2572 30.5793 26.7395L31.6777 24.9088C32.1029 24.1791 32.2196 23.3099 32.002 22.4939C31.7843 21.6778 31.2504 20.9822 30.5183 20.561C29.7862 20.1398 29.2523 19.4442 29.0346 18.6281C28.817 17.8121 28.9337 16.9429 29.3589 16.2132C29.6354 15.7305 30.0356 15.3302 30.5183 15.0537C32.0269 14.1714 32.544 12.2391 31.6777 10.7212V10.7059Z" stroke="#028F68" stroke-width="3" stroke-linecap="round" stroke-linejoin="round"/>
<path opacity="0.4" d="M17.2918 22.2086C19.7183 22.2086 21.6854 20.2415 21.6854 17.815C21.6854 15.3885 19.7183 13.4214 17.2918 13.4214C14.8653 13.4214 12.8982 15.3885 12.8982 17.815C12.8982 20.2415 14.8653 22.2086 17.2918 22.2086Z" stroke="#028F68" stroke-width="3" stroke-linecap="round" stroke-linejoin="round"/>
</svg>
