<svg width="400" height="220" viewBox="0 0 400 220" fill="none" xmlns="http://www.w3.org/2000/svg">
<path d="M14.2476 165.719C17.2387 172.637 21.1594 179.114 25.9014 184.972C31.1678 191.502 37.8098 196.79 45.3538 200.459C53.8605 204.475 63.3461 206.106 72.8206 205.658C79.8024 205.283 86.7186 204.113 93.4346 202.168C100.926 200.009 108.214 197.2 115.216 193.772C122.705 190.133 129.915 185.946 136.786 181.244C144.256 176.159 151.372 170.573 158.086 164.524C164.952 158.338 171.384 151.685 177.334 144.613C183.573 137.244 189.263 129.428 194.358 121.228C199.462 112.957 203.887 104.285 207.588 95.2986C211.178 86.5652 214.187 77.5 215.763 68.2356C217.236 60.1409 217.365 51.8589 216.145 43.7223C215.108 37.0605 212.764 30.6696 209.248 24.917C205.896 19.5503 201.454 14.947 196.211 11.4048C191.114 7.98789 185.383 5.62759 179.358 4.46344C172.786 3.20896 166.043 3.14153 159.447 4.26433C152.387 5.47868 145.57 7.82448 139.259 11.2112C132.087 15.0537 125.512 19.9184 119.74 25.6526C118.165 27.2013 116.65 28.7997 115.193 30.448C114.456 31.2665 113.744 32.0943 113.058 32.9314C112.588 33.4845 112.124 34.0707 111.659 34.646L111.405 34.9557C111.277 35.1216 111.045 35.2212 111.405 34.9557C111.764 34.6902 111.598 34.7123 111.543 34.7898C110.686 36.0287 109.646 37.1681 108.777 38.396C104.906 43.7887 101.626 49.7234 99.751 55.9955C98.6835 59.5575 98.0585 63.3794 98.4678 67.0575C98.8765 71.1549 100.555 75.0223 103.269 78.1194C104.86 79.9674 106.927 81.3444 109.246 82.101C111.565 82.8576 114.046 82.965 116.421 82.4115C121.399 81.1559 124.994 77.2566 126.786 72.8373C129.104 67.1404 127.97 60.7688 125.487 55.3152C121.615 46.8141 114.148 40.1106 106.421 34.646C97.3229 28.1479 87.2383 23.156 76.554 19.8617C68.3184 17.3893 59.4523 16.1725 50.835 17.2289C43.1857 18.1526 35.835 20.7245 29.6791 25.1659C23.5266 29.62 18.5696 35.525 15.2487 42.3561C11.8712 49.3177 9.83528 56.8532 9.24764 64.5685C8.90974 69.7277 9.16024 74.9085 9.99432 80.011C10.8667 85.6318 12.2421 91.1628 14.1038 96.5376C16.2426 102.74 18.8612 108.767 21.9357 114.563C25.1986 120.732 28.9184 126.648 33.064 132.262C37.632 138.474 42.6531 144.34 48.0861 149.812C53.772 155.528 59.8848 160.803 66.3715 165.592C73.4744 170.842 80.9812 175.523 88.8217 179.591C97.2136 183.91 105.938 187.55 114.911 190.476C119.574 192.002 124.314 193.335 129.098 194.486C132.74 195.442 136.433 196.19 140.16 196.726C145.929 197.428 151.875 196.997 157.599 196.134C168.457 194.502 181.565 189.192 190.581 183.28C191.93 182.4 194.568 180.022 193.695 178.612C192.909 177.356 191.427 175.675 190.072 176.565C181.089 182.45 166.095 189.192 155.227 190.719L154.762 190.785C155.149 190.73 154.43 190.824 154.314 190.835C153.8 190.896 153.291 190.951 152.776 191.001C151.858 191.09 150.935 191.156 150.011 191.211C148.451 191.294 146.891 191.333 145.326 191.311C144.22 191.311 143.07 191.25 141.947 191.167C141.554 191.139 141.161 191.106 140.774 191.062L140.381 191.023C139.773 190.957 140.852 191.084 140.829 191.079C139.624 190.736 138.285 190.614 137.052 190.359C134.64 189.873 132.24 189.331 129.862 188.75C125.227 187.614 120.647 186.303 116.123 184.817C113.884 184.08 111.661 183.296 109.452 182.467L107.92 181.88L107.157 181.582L106.748 181.416C105.7 180.996 104.659 180.568 103.623 180.133C99.5666 178.411 95.5806 176.538 91.6647 174.513C87.8409 172.533 84.1094 170.409 80.47 168.142C78.7074 167.035 76.9689 165.905 75.2543 164.751C74.408 164.198 73.5673 163.595 72.7266 163.009L71.5375 162.157L71.1503 161.88L70.6746 161.532C64.3359 156.863 58.355 151.727 52.7819 146.167C50.1455 143.523 47.6068 140.795 45.1658 137.981C44.574 137.29 43.9821 136.598 43.3959 135.896L42.981 135.393C42.6215 134.961 43.2576 135.736 42.9036 135.304L42.0187 134.198C40.8793 132.778 39.7731 131.338 38.7001 129.878C34.6375 124.42 30.9756 118.675 27.7432 112.688C26.9652 111.239 26.213 109.777 25.4866 108.302C25.1381 107.588 24.7952 106.875 24.4578 106.156C24.3029 105.813 24.1425 105.476 23.9877 105.133L23.7554 104.618C23.5507 104.17 23.9822 105.138 23.7167 104.535C22.4943 101.77 21.3605 98.938 20.3538 96.084C18.4662 90.8081 17.0394 85.3785 16.0895 79.8562C16.0341 79.5464 15.9844 79.2422 15.9401 78.9325C15.9125 78.7776 15.8903 78.6283 15.8682 78.4734C15.8461 78.3185 15.7576 77.7101 15.835 78.2411C15.9125 78.7721 15.7797 77.8263 15.7521 77.6382L15.6359 76.6537C15.4921 75.4258 15.3796 74.1943 15.2985 72.959C15.1437 70.604 15.1271 68.2419 15.2487 65.8849C15.3041 64.7787 15.3981 63.6725 15.5308 62.5663C15.5585 62.2898 15.6027 62.0132 15.6359 61.7422C15.6691 61.4712 15.6359 61.8418 15.6359 61.8805C15.6359 61.7533 15.6691 61.6316 15.6912 61.5044L15.824 60.6415C15.9899 59.6349 16.1779 58.6227 16.3771 57.6216C17.1868 53.7944 18.3706 50.0559 19.9114 46.4601C20.1381 45.9402 19.7288 46.8362 19.9722 46.3274L20.2543 45.7245C20.4589 45.2986 20.6691 44.8672 20.8848 44.4413C21.2996 43.6393 21.731 42.8429 22.1901 42.0575C23.0863 40.5267 24.0706 39.0493 25.1381 37.6327C25.387 37.2953 25.647 36.969 25.9069 36.6371C26.2498 36.2002 25.5972 36.9966 25.9567 36.5763L26.4268 36.0232C26.991 35.3742 27.5736 34.74 28.1746 34.1205C29.37 32.8989 30.6409 31.7535 31.9799 30.6913C32.3229 30.4203 32.6824 30.1382 33.0308 29.8838C33.1691 29.7787 32.5883 30.1935 33.0751 29.8838C33.2687 29.7455 33.4622 29.6073 33.6614 29.4745C34.3619 28.9915 35.081 28.5342 35.8184 28.1028C37.2947 27.2264 38.8263 26.4467 40.4036 25.7688L40.9567 25.5254L41.2443 25.4037C41.2443 25.4037 40.6912 25.6194 41.001 25.5033C41.4268 25.3429 41.8472 25.1769 42.2786 25.0276C43.1083 24.7326 43.9471 24.4653 44.7952 24.2256C46.5311 23.7333 48.295 23.3455 50.0773 23.0641L50.7355 22.9646C50.8461 22.9646 51.5485 22.8484 51.1005 22.9092C50.6525 22.9701 51.3549 22.9092 51.4711 22.8705C51.731 22.8373 51.991 22.8152 52.2565 22.7876C53.1968 22.6991 54.1481 22.6382 55.0939 22.5995C57.1021 22.5257 59.1129 22.5627 61.1171 22.7101C61.6094 22.7433 62.0961 22.782 62.5773 22.8318L63.3129 22.9092C63.4567 22.9092 64.2587 23.0143 63.8992 22.9701C63.5397 22.9258 64.2476 23.0199 64.3638 23.0365L65.1105 23.1471C65.6636 23.23 66.2167 23.3185 66.7698 23.4126C68.9453 23.7997 71.0931 24.2883 73.2133 24.8783C75.4755 25.4977 77.7045 26.2278 79.9003 27.0353L81.5596 27.6603C81.1337 27.4944 81.8085 27.7599 81.9302 27.8097L82.8925 28.2079C84.0651 28.7002 85.2266 29.2201 86.3715 29.7511C91.4927 32.1437 96.4272 34.917 101.134 38.0475C105.457 40.8705 109.456 44.161 113.058 47.8595C113.822 48.6559 114.552 49.4745 115.271 50.3097C115.636 50.7356 115.088 50.0718 115.431 50.5033L115.89 51.084C116.211 51.4933 116.521 51.9137 116.825 52.334C117.918 53.8416 118.889 55.4341 119.729 57.0962C119.823 57.2732 119.911 57.4557 119.994 57.6493C120.144 57.9535 120.21 58.1194 120.022 57.688C120.188 58.0696 120.348 58.4513 120.503 58.844C120.78 59.5575 121.029 60.282 121.239 61.0121C121.449 61.7422 121.604 62.4059 121.737 63.1084C121.77 63.2743 121.797 63.4347 121.825 63.6006C121.925 64.1537 121.792 63.3019 121.825 63.4845C121.858 63.8329 121.908 64.1758 121.936 64.5188C121.985 65.1554 122.002 65.7941 121.985 66.4325C121.884 67.0336 121.835 67.6425 121.842 68.2522C121.797 68.0033 121.952 67.5663 121.842 68.053C121.814 68.1913 121.792 68.3296 121.764 68.4623C121.709 68.7555 121.643 69.0486 121.571 69.3362C121.429 69.8994 121.254 70.4535 121.045 70.9955C120.984 71.1559 120.647 71.9413 120.879 71.4325C121.112 70.9236 120.73 71.7256 120.641 71.8915C120.399 72.3502 120.131 72.7952 119.839 73.2245C119.701 73.4236 119.557 73.6227 119.414 73.8163C118.982 74.4026 119.873 73.3241 119.32 73.9325C118.995 74.3003 118.652 74.6511 118.291 74.9834C118.117 75.1382 117.933 75.2876 117.738 75.4314C117.649 75.5033 117.555 75.5696 117.467 75.6471C117.041 75.99 118.02 75.282 117.671 75.4977C117.323 75.7134 116.886 76.0066 116.471 76.2278C116.272 76.3329 116.073 76.4269 115.874 76.521C115.774 76.5708 115.664 76.6039 115.57 76.6537C115.476 76.7035 116.366 76.3716 115.835 76.5486C115.404 76.6869 114.978 76.8307 114.53 76.9303L113.888 77.0519C113.39 77.157 114.441 77.0022 114.27 77.0077C114.098 77.0132 114.021 77.0353 113.894 77.0409C113.426 77.0768 112.956 77.0768 112.489 77.0409C112.38 77.0352 112.271 77.0352 112.162 77.0409C111.72 77.0409 112.97 77.1847 112.544 77.0851C112.312 77.0298 112.074 77.0077 111.842 76.9524C111.388 76.8473 110.957 76.6482 110.509 76.5431C109.784 76.3119 108.998 76.3723 108.318 76.7116C107.637 77.0509 107.116 77.6423 106.864 78.36C106.613 79.0777 106.652 79.8651 106.972 80.5548C107.292 81.2445 107.869 81.7822 108.579 82.0534C109.289 82.3247 110.078 82.3081 110.776 82.0073C111.474 81.7065 112.028 81.1451 112.319 80.4425C112.61 79.74 112.615 78.9516 112.334 78.2451C112.053 77.5386 111.507 76.9697 110.813 76.6592L110.503 76.5154C110.276 76.4048 110.05 76.2831 109.834 76.1559C109.618 76.0287 109.425 75.907 109.226 75.7798C109.115 75.7079 108.728 75.4314 109.187 75.7798C109.646 76.1283 109.187 75.7798 109.098 75.7024C108.682 75.3571 108.287 74.9877 107.915 74.5962C107.716 74.3915 107.533 74.1758 107.362 73.9601C107.19 73.7444 107.472 74.0929 107.483 74.115C107.422 74.021 107.351 73.938 107.284 73.8495C107.135 73.6449 106.985 73.4457 106.842 73.2356C106.358 72.5032 105.922 71.7402 105.536 70.9513C105.387 70.6637 105.63 71.1615 105.636 71.167C105.597 71.073 105.553 70.9789 105.52 70.8849C105.442 70.6913 105.37 70.5033 105.299 70.3318C105.149 69.9225 105.016 69.5022 104.906 69.0763C104.795 68.6504 104.707 68.2909 104.629 67.8982C104.591 67.6991 104.557 67.4999 104.524 67.3008C104.436 66.8086 104.574 67.8539 104.524 67.1626C104.436 66.286 104.397 65.4052 104.408 64.5243C104.408 63.6615 104.502 62.8097 104.596 61.9579C104.657 61.4048 104.508 62.4557 104.596 61.8971C104.629 61.6924 104.662 61.4878 104.701 61.2776C104.779 60.8351 104.867 60.3871 104.967 59.9446C105.359 58.2314 105.871 56.5478 106.499 54.9059C106.803 54.0873 107.14 53.2853 107.489 52.4778C107.704 51.969 107.284 52.9148 107.516 52.4115L107.782 51.8584C107.97 51.4601 108.164 51.0619 108.335 50.6692C109.06 49.2311 109.839 47.8152 110.669 46.4325C111.955 44.2825 113.351 42.2001 114.851 40.1935C115.238 39.6736 115.636 39.1648 116.04 38.6559C116.443 38.1471 115.575 39.209 115.813 38.9325L116.549 38.0254C116.714 37.8152 116.88 37.605 117.052 37.4004L117.301 37.0851C117.118 37.3174 117.185 37.2289 117.334 37.0519C120.067 33.7294 123.016 30.5902 126.161 27.6548C127.636 26.3053 129.154 25.0018 130.713 23.7444C131.477 23.1415 132.245 22.5442 133.025 21.9634L133.578 21.5542C133.164 21.8584 133.501 21.615 133.711 21.4601L134.956 20.6194C137.975 18.544 141.143 16.6953 144.436 15.0884C145.221 14.7068 146.018 14.3362 146.825 13.9823C147.207 13.8108 147.588 13.6504 147.97 13.49L148.645 13.2134C148.954 13.0752 148.396 13.3075 148.396 13.313L148.777 13.1581C150.348 12.5497 151.943 11.9966 153.562 11.4988C155.127 11.0287 156.72 10.6194 158.324 10.282C159.109 10.1106 159.895 9.96123 160.686 9.82849C161.062 9.76212 161.443 9.70128 161.792 9.64597L162.345 9.563C162.765 9.50769 162.898 9.40813 162.378 9.563C163.147 9.40873 163.928 9.32908 164.712 9.32517C165.481 9.2588 166.255 9.21455 167.024 9.1869C168.573 9.13159 170.122 9.13712 171.67 9.22008C172.417 9.2588 173.164 9.31411 173.883 9.39154C174.251 9.42473 174.605 9.46344 174.945 9.50769C175.498 9.56853 174.286 9.41367 174.839 9.50769L175.453 9.59619C176.902 9.8119 178.335 10.0884 179.751 10.4369C181.167 10.7853 182.516 11.1891 183.894 11.6648C184.214 11.7754 184.541 11.8915 184.862 12.0132C185.022 12.0741 185.177 12.1404 185.337 12.1957C185.641 12.3064 184.994 12.0519 185.011 12.063C185.11 12.1194 185.216 12.164 185.326 12.1957C185.984 12.4668 186.637 12.7488 187.279 13.0475C188.585 13.6599 189.859 14.3393 191.095 15.0829C191.703 15.4424 192.301 15.8241 192.881 16.1891L193.722 16.7422C193.816 16.8086 194.275 17.1626 193.894 16.8639C193.512 16.5652 194.032 16.969 194.131 17.0464C196.405 18.7632 198.494 20.7113 200.365 22.8595C200.622 23.0936 200.849 23.3594 201.04 23.6504C200.89 23.3241 200.735 23.2688 201.001 23.6061L201.377 24.0873C201.831 24.6404 202.262 25.2488 202.677 25.8462C203.544 27.0939 204.345 28.3862 205.077 29.7179C205.442 30.3816 205.796 31.0564 206.128 31.7311C206.289 32.063 206.438 32.4004 206.598 32.7323C206.831 33.219 206.383 32.2234 206.598 32.7323C206.687 32.9314 206.775 33.1305 206.858 33.3296C207.472 34.7842 208.014 36.2721 208.484 37.7544C208.954 39.2367 209.391 40.9181 209.729 42.5221C209.906 43.3517 210.061 44.1814 210.199 45.0221C210.232 45.2267 210.265 45.4314 210.293 45.6305C210.348 45.9623 210.37 46.1836 210.293 45.6913C210.348 46.1449 210.409 46.5929 210.464 47.0464C210.881 50.7627 210.983 54.5076 210.769 58.2411C210.665 60.2433 210.481 62.2382 210.216 64.2256C210.188 64.4745 210.149 64.7179 210.116 64.9668C210.188 64.4469 210.116 64.9668 210.083 65.1935C210 65.7466 209.911 66.2997 209.817 66.8141C209.633 67.8761 209.432 68.9343 209.214 69.9889C207.334 79.0431 204.237 87.9148 200.525 96.4546C200.304 96.969 200.077 97.4778 199.85 97.9867L199.685 98.3738C199.685 98.3185 199.839 98.0199 199.685 98.3241C199.53 98.6283 199.419 98.9159 199.281 99.209C198.8 100.265 198.302 101.316 197.799 102.362C196.832 104.486 195.796 106.571 194.69 108.617C192.478 112.729 190.118 116.757 187.61 120.702C185.14 124.574 182.526 128.357 179.768 132.052C178.403 133.896 177.004 135.702 175.57 137.472L174.541 138.75C174.203 139.165 174.662 138.601 174.32 139.015L173.711 139.751C172.959 140.658 172.19 141.56 171.421 142.45C165.572 149.222 159.279 155.596 152.583 161.532C149.305 164.441 145.925 167.244 142.445 169.939C141.596 170.595 140.745 171.244 139.889 171.886L138.656 172.799L138.042 173.252C137.765 173.451 138.108 173.202 138.141 173.175L137.732 173.473C136.029 174.701 134.301 175.902 132.55 177.074C125.844 181.595 118.819 185.625 111.532 189.132C109.806 189.958 108.066 190.747 106.311 191.499C105.448 191.868 104.581 192.236 103.711 192.605L103.086 192.859C103.567 192.66 103.269 192.788 102.987 192.898C102.539 193.07 102.091 193.247 101.643 193.413C98.2631 194.696 94.8229 195.841 91.3273 196.809C88.0661 197.718 84.7596 198.457 81.4213 199.021C80.6193 199.159 79.8173 199.281 79.0098 199.397L78.4567 199.475H78.5009L77.262 199.613C75.6728 199.786 74.0835 199.906 72.4943 199.972C70.5695 200.055 68.6226 200.055 66.7255 199.972C65.481 199.911 64.2476 199.806 63.0142 199.674C62.4224 199.607 63.2521 199.712 62.6658 199.635L61.814 199.508C61.2056 199.419 60.5972 199.314 59.9943 199.204C57.7439 198.768 55.5248 198.185 53.3516 197.456C52.8483 197.29 52.3505 197.118 51.8583 196.936L51.1226 196.665L50.7631 196.521C51.0231 196.626 51.0341 196.637 50.7631 196.521C49.7841 196.106 48.8052 195.68 47.8538 195.216C45.9597 194.289 44.1254 193.246 42.3616 192.091C41.9523 191.825 41.5541 191.538 41.1558 191.272L40.564 190.857C41.0397 191.189 40.4755 190.791 40.3041 190.664C39.5076 190.066 38.7333 189.447 37.97 188.811C36.4766 187.55 35.0515 186.22 33.6945 184.823C33.0308 184.132 32.3782 183.429 31.7476 182.716C31.4434 182.373 31.1503 182.03 30.8516 181.681L30.4202 181.161C30.2045 180.907 30.5198 181.283 30.5364 181.305L30.2543 180.951C28.054 178.197 26.0575 175.285 24.2808 172.24C23.4512 170.824 22.6639 169.388 21.9191 167.931C21.5651 167.229 21.2167 166.527 20.8793 165.813C20.7133 165.47 20.5474 165.122 20.387 164.773L20.1547 164.259C19.8726 163.639 20.3206 164.635 20.116 164.176C19.4855 162.749 18.1027 161.726 16.3715 162.174C14.939 162.544 13.606 164.259 14.2421 165.697L14.2476 165.719Z" fill="#3CA69B"/>
<path d="M389.768 99.6018C388.198 101.587 386.527 103.49 384.762 105.304C383.927 106.162 383.064 107.008 382.185 107.826C381.775 108.208 381.361 108.584 380.946 108.933C380.741 109.121 380.531 109.303 380.321 109.486L380.011 109.757L379.945 109.812C376.598 112.649 372.976 115.143 369.132 117.257C368.7 117.494 368.263 117.721 367.826 117.948L367.174 118.274C366.764 118.479 367.207 118.274 367.273 118.225C367.113 118.285 366.941 118.385 366.786 118.457C365.905 118.874 365.015 119.263 364.115 119.624C362.379 120.322 360.6 120.907 358.789 121.377C358.379 121.482 357.964 121.582 357.55 121.67C357.334 121.72 356.681 121.781 357.45 121.67C357.196 121.698 356.941 121.764 356.687 121.809C355.868 121.952 355.028 122.063 354.22 122.14C353.412 122.218 352.633 122.251 351.836 122.251C351.46 122.251 351.084 122.251 350.73 122.251C351.565 122.251 350.94 122.251 350.73 122.251L350.05 122.19C349.319 122.113 348.594 121.997 347.876 121.842C347.539 121.77 347.201 121.687 346.869 121.593C346.775 121.593 346.156 121.383 346.626 121.527C347.096 121.67 346.383 121.438 346.278 121.405C345.627 121.168 344.991 120.891 344.375 120.575C344.087 120.426 343.822 120.221 343.506 120.088C344.181 120.382 343.739 120.232 343.506 120.088C343.274 119.945 343.164 119.856 342.998 119.735C342.447 119.334 341.926 118.894 341.438 118.418C341.372 118.357 340.94 117.915 341.272 118.258C341.604 118.601 341.178 118.147 341.117 118.081C340.89 117.821 340.669 117.528 340.464 117.279C340.044 116.726 339.701 116.128 339.358 115.537C339.773 116.206 339.463 115.73 339.358 115.537C339.253 115.343 339.214 115.243 339.143 115.094C338.988 114.751 338.844 114.408 338.711 114.06C338.46 113.404 338.25 112.733 338.081 112.052C338.081 111.963 337.915 111.327 338.02 111.798C338.125 112.268 337.987 111.621 337.97 111.532C337.904 111.161 337.843 110.785 337.793 110.426C337.612 108.864 337.564 107.289 337.649 105.719C337.649 105.398 337.599 106.244 337.649 105.924C337.649 105.802 337.649 105.675 337.677 105.553C337.704 105.431 337.716 105.155 337.738 104.956C337.782 104.53 337.837 104.098 337.898 103.673C338.025 102.815 338.18 101.963 338.368 101.123C338.556 100.282 338.805 99.3142 339.071 98.4237C339.2 97.9923 339.332 97.5608 339.469 97.1294L339.69 96.4823L339.806 96.156C339.956 95.7246 339.69 96.4657 339.806 96.156C341.289 92.2543 343.18 88.5204 345.448 85.0166C345.735 84.5686 346.001 84.1261 346.327 83.6836L346.786 83.0199C346.997 82.7157 346.56 83.3352 346.786 83.0199L347.085 82.6051C347.771 81.6538 348.481 80.719 349.214 79.8009C350.758 77.8761 352.406 76.0177 354.143 74.2699C355.053 73.3407 355.988 72.4336 356.947 71.5487C357.165 71.3151 357.333 71.0388 357.44 70.7372C357.546 70.4356 357.589 70.1152 357.566 69.7962C357.542 69.4772 357.453 69.1665 357.304 68.8836C357.154 68.6008 356.948 68.3519 356.698 68.1527C356.164 67.7574 355.506 67.5673 354.844 67.617C354.182 67.6668 353.56 67.9531 353.092 68.4237C345.901 75.0332 339.817 83.0476 336.112 91.8473C333.175 98.7777 331.432 106.532 333.346 113.883C334.161 116.998 335.814 119.831 338.125 122.074C340.528 124.3 343.491 125.83 346.698 126.499C353.932 128.158 361.831 126.073 368.368 123.031C377.077 118.876 384.836 112.972 391.161 105.686C392.024 104.701 392.865 103.7 393.672 102.677C394.48 101.654 394.552 100.122 393.424 99.281C392.4 98.5232 390.658 98.4679 389.812 99.5465L389.768 99.6018Z" fill="#3CA69B"/>
<path d="M358.161 72.3791C361.143 72.1575 363.391 69.701 363.183 66.8923C362.974 64.0837 360.387 61.9865 357.405 62.2081C354.422 62.4297 352.174 64.8862 352.383 67.6949C352.591 70.5036 355.178 72.6008 358.161 72.3791Z" fill="#3CA69B"/>
<path d="M399.989 98.4182C400.199 101.222 397.948 103.678 394.967 103.899C391.986 104.121 389.397 102.024 389.187 99.2201C388.977 96.4159 391.228 93.9547 394.209 93.7334C397.19 93.5122 399.779 95.6084 399.989 98.4182Z" fill="#3CA69B"/>
<path d="M15.0996 168.794C19.1196 168.794 22.3784 165.726 22.3784 161.941C22.3784 158.157 19.1196 155.088 15.0996 155.088C11.0797 155.088 7.82086 158.157 7.82086 161.941C7.82086 165.726 11.0797 168.794 15.0996 168.794Z" fill="#3CA69B"/>
<path d="M15.0996 174.591C23.4388 174.591 30.1991 168.227 30.1991 160.376C30.1991 152.526 23.4388 146.162 15.0996 146.162C6.7603 146.162 0 152.526 0 160.376C0 168.227 6.7603 174.591 15.0996 174.591Z" fill="#3CA69B"/>
<path d="M7.15708 152.655C7.33407 152.494 7.51106 152.345 7.71018 152.196L7.98673 151.98C8.0365 151.941 8.09181 151.908 8.13606 151.869L8.21903 151.809C8.59883 151.529 8.99399 151.27 9.40266 151.034C9.4712 151 9.5318 150.951 9.58061 150.892C9.62943 150.833 9.66538 150.764 9.68619 150.69C9.707 150.616 9.71221 150.539 9.70148 150.463C9.69076 150.387 9.66433 150.314 9.62389 150.249C9.53456 150.116 9.39878 150.021 9.24323 149.984C9.08768 149.946 8.92359 149.967 8.78319 150.044C7.88399 150.532 7.04654 151.127 6.28872 151.814C6.23257 151.866 6.18777 151.929 6.15712 151.999C6.12648 152.069 6.11066 152.144 6.11066 152.221C6.11066 152.297 6.12648 152.373 6.15712 152.443C6.18777 152.513 6.23257 152.575 6.28872 152.627C6.40736 152.733 6.56095 152.792 6.72013 152.792C6.87931 152.792 7.0329 152.733 7.15155 152.627L7.15708 152.655Z" fill="#3CA69B"/>
<path d="M3.66143 160.398C3.67721 158.247 4.35292 156.152 5.59727 154.397C6.03422 153.761 4.9778 153.208 4.54639 153.794C3.18362 155.727 2.44798 158.033 2.43909 160.398C2.43909 161.139 3.6559 161.139 3.66143 160.398Z" fill="#3CA69B"/>
<path d="M26.5487 160.398C26.5528 161.602 26.3411 162.797 25.9237 163.927C25.9005 164.001 25.8934 164.08 25.9027 164.157C25.912 164.235 25.9377 164.31 25.9779 164.376C26.0181 164.443 26.072 164.501 26.1361 164.545C26.2002 164.59 26.2729 164.62 26.3496 164.635C26.5028 164.674 26.6651 164.654 26.8045 164.58C26.9438 164.505 27.0499 164.38 27.1018 164.231C27.5384 163 27.7591 161.704 27.7545 160.398C27.7419 160.246 27.6721 160.104 27.5592 160.002C27.4463 159.899 27.2987 159.843 27.1461 159.845C26.9961 159.848 26.8526 159.906 26.7426 160.008C26.6325 160.11 26.5636 160.249 26.5487 160.398Z" fill="#3CA69B"/>
<path d="M379.917 110.985L380.83 110.304C380.83 110.304 369.972 86.6814 365.896 82.8319C361.82 78.9823 348.827 72.0575 348.827 72.0575L348.053 72.6936C341.167 69.5022 342.329 61.9469 342.329 61.9469C347.091 60.8407 356.195 47.2567 355.603 38.656C355.011 30.0553 343.988 22.0631 330.957 23.3794C317.926 24.6958 316.25 34.6682 317.804 42.3839C319.358 50.0996 322.644 46.2556 322.644 46.2556C323.418 52.948 328.844 59.5299 328.844 59.5299C328.844 59.5299 330.26 60.7688 330.006 65.5089C329.751 70.2489 321.825 72.8595 321.825 72.8595L320.647 71.4989L317.069 73.5122C317.069 73.5122 317.837 71.51 313.385 65.0719C308.932 58.6339 297.566 56.9193 290.929 55.0553C284.292 53.1914 285.769 41.781 285.769 41.781C288.778 38.4237 290.072 32.3783 290.072 32.3783C292.926 35.1051 296.737 28.6615 295.553 24.1759C294.369 19.6903 290.984 22.312 290.984 22.312L290.431 13.2467L270.52 18.0421L263.711 23.9934L261.499 23.4403C259.259 22.8872 258.501 26.7202 258.833 29.9613C259.165 33.2025 262.854 34.8452 262.854 34.8452C262.854 34.8452 262.262 35.791 263.8 37.2511C265.337 38.7113 267.931 37.7489 267.931 37.7489C269.663 42.1848 272.677 43.6947 272.677 43.6947C272.677 43.6947 273.053 49.8286 273.064 51.781C273.075 53.7334 268.728 56.5874 268.728 56.5874C267.467 56.7048 266.216 56.9212 264.989 57.2345C263.147 57.7213 261.748 59.9392 254.84 62.6217C247.931 65.3042 245.697 73.2854 245.697 73.2854C245.697 73.2854 242.998 72.1792 240.166 71.1781C237.334 70.177 231.527 68.9104 231.527 68.9104L230.509 70.4093C229.083 69.7786 227.703 69.0505 226.377 68.2301C225.05 67.2954 224.441 60.2987 224.441 60.2987C227.76 57.1848 229.27 50.1991 229.27 50.1991C229.95 50.281 230.594 50.5468 231.134 50.9679C231.825 51.6151 238.877 43.7777 235.454 38.3573C232.03 32.937 229.668 38.9104 229.668 38.9104L229.419 34.3584C229.419 34.3584 223.258 26.864 213.728 26.969C204.198 27.0741 201.56 33.8164 201.56 33.8164L201.632 41.3772C201.632 41.3772 201.383 38.5233 198.153 40.083C194.923 41.6427 195.564 48.9325 198.086 52.3452C200.089 55.0553 202.201 53.656 202.992 52.9591V53.0255C203.092 55.6195 207.671 60.1383 207.671 60.1383C207.671 60.1383 208.225 63.9436 208.579 66.1781C208.933 68.4126 204.558 70.3319 204.558 70.3319L202.854 68.2246C202.854 68.2246 191.792 74.9226 186.864 77.937C181.936 80.9514 166.593 99.7677 165.725 100.791C164.856 101.814 166.405 106.106 166.405 106.106C166.405 106.106 160.376 115.337 159.585 122.594C158.794 129.851 170.155 135.83 178.114 141.715C186.073 147.6 190.094 147.03 190.094 147.03L189.945 158.949L190.603 160C190.74 163.434 190.484 166.873 189.84 170.249C188.778 175.603 189.314 187.882 189.076 190.581C188.839 193.28 188.921 216.737 187.826 222.235C186.731 227.732 188.424 230.531 188.424 230.531L187.229 244.602L214.259 245.066C215.31 242.788 214.928 230.808 214.928 230.808C215.36 228.042 223.413 187.472 223.413 187.472L224.519 187.577C224.519 187.577 228.435 215.813 228.905 220.996C229.375 226.178 233.214 244.735 233.214 244.735H280.78L281.079 234.972C281.632 233.407 281.897 227.572 281.897 227.572C282.694 226.731 284.552 210.796 284.552 210.796C284.552 210.796 285.857 226.333 285.437 227.671C285.017 229.01 285.758 234.862 285.918 235.448C286.079 236.034 286.504 244.851 286.504 244.851H331.195C331.195 244.851 332.008 237.107 332.688 231.106C333.368 225.105 332.428 207.273 332.428 207.273C333.103 203.164 334.524 176.814 334.524 176.814L335.293 187.699C335.293 187.699 337.317 206.056 337.699 214.248C338.081 222.439 341.278 244.779 341.278 244.779H359.513L360.028 209.851C360.343 208.47 360.565 207.069 360.691 205.658C360.957 203.003 359.425 184.154 361.244 178.269C363.064 172.384 361.327 156.3 361.327 156.3L362.279 155.42C363.816 151.98 360.968 134.679 360.968 134.679L364.707 131.914C364.707 131.914 371.25 136.272 375.415 138.949C379.58 141.626 386.515 140.138 388.252 133.971C389.989 127.804 379.917 110.985 379.917 110.985ZM190.625 134.369L187.97 135.835L179.408 122.174L181.554 118.822L182.992 119.176L189.912 113.518L191.936 124.414L190.625 134.369ZM359.58 121.869C359.58 121.869 358.872 117.445 359.746 115.99L363.49 116.062L366.93 122.788C366.93 122.788 361.499 121.322 359.58 121.869Z" fill="white"/>
<path d="M163.944 110.066C166.505 111.282 168.992 112.647 171.394 114.154C175.028 116.471 180.299 120.791 180.299 120.791L180.796 118.789C180.796 118.789 173.164 114.795 170.985 112.522C168.805 110.249 166.444 106.029 166.444 106.029C166.444 106.029 164.17 109.038 163.944 110.066Z" fill="#4F7384"/>
<path d="M190.061 159.502C190.061 159.502 202.782 161.952 224.065 161.344C245.348 160.736 252.34 157.323 252.34 157.323L251.997 160.863C251.997 160.863 233.534 162.705 218.612 162.843C208.94 163.021 199.309 164.133 189.851 166.161C189.851 166.161 191.084 161.001 190.061 159.502Z" fill="#5B8ECD"/>
<path d="M225.254 194.137L227.229 187.799C227.229 187.799 222.837 186.847 219.635 187.561C219.635 187.561 221.609 190.664 221.986 193.047C223.042 188.108 223.009 187.732 223.009 187.732H224.557L225.254 194.137Z" fill="#5B8ECD"/>
<path d="M207.688 60.2544L208.595 66.2942C208.595 66.2942 210.957 65.0221 216.892 64.8396C222.826 64.6571 225.16 65.9458 225.16 65.9458L224.342 60.3595C224.342 60.3595 223.706 63.4015 217.212 63.9491C210.719 64.4967 207.688 60.2544 207.688 60.2544Z" fill="#4F7384"/>
<path d="M187.611 108.307L186.61 115.896L189.834 113.307L187.611 108.307Z" fill="#5B8ECD"/>
<path d="M219.906 90.5476L220.177 96.6815" stroke="#5B8ECD" stroke-width="1.25" stroke-miterlimit="10"/>
<path d="M180.465 143.485C174.884 139.558 162.461 130.586 160.857 127.445C157.201 120.254 166.421 106.233 166.421 106.233" stroke="#4F7384" stroke-width="1.25" stroke-linecap="round" stroke-linejoin="round"/>
<path d="M238.573 35.1548C238.02 29.6238 237.074 27.594 230.276 21.4601C229.253 14.4413 226.526 10.0829 222.505 7.42252C218.484 4.76212 206.222 2.85947 202.201 11.4435C195.116 14.7179 196.067 23.0973 196.067 23.0973C196.067 23.0973 190.265 23.1637 189.38 32.8373C188.495 42.511 195.105 45.8517 195.105 45.8517L195.603 46.0785C195.444 44.9513 195.546 43.8027 195.901 42.7212C196.493 40.9347 197.328 40.0608 198.855 39.7345C200.382 39.4081 201.294 41.2112 201.294 41.2112L202.909 50.553L203.009 53.1415C203.009 53.1415 203.213 53.1415 201.648 53.8938C200.083 54.646 198.103 52.4612 198.103 52.4612C198.522 54.1405 199.275 55.7185 200.315 57.1017C202.091 59.4856 206.266 58.4568 206.266 58.4568L203.473 53.6891L203.318 52.7599L203.141 51.698L203.009 50.9181L201.349 41.1504L201.421 34.1316C201.421 34.1316 202.439 32.9756 204.828 29.9778C207.218 26.98 213.888 26.3661 219.27 27.1847C224.651 28.0033 228.982 34.1316 228.982 34.1316C228.982 34.1316 229.214 34.646 229.336 39.4911L229.441 39.4026L229.712 39.021C230.586 37.8595 231.997 36.2168 233.65 36.6869C235.072 37.0907 235.531 38.8163 235.763 40.094C236.171 42.011 235.99 44.0063 235.243 45.8185C234.864 46.7633 234.378 47.6615 233.794 48.4955C233.339 49.2309 232.688 49.8247 231.914 50.2101C231.441 50.4067 230.933 50.5047 230.422 50.4981C229.91 50.4914 229.405 50.3803 228.938 50.1714C228.711 52.0318 228.247 53.8554 227.555 55.5973C230.962 57.7765 233.141 53.7555 235.796 49.4634C238.451 45.1714 239.12 40.6747 238.573 35.1548Z" fill="#ACCAF2"/>
<path d="M185.769 91.7091C185.769 91.7091 185.907 106.698 189.928 113.512C192.312 122.777 191.969 124.823 191.969 124.823L190.675 134.497" stroke="#5B8ECD" stroke-width="1.25" stroke-linecap="round" stroke-linejoin="round"/>
<path d="M244.978 72.9701L236.056 69.834C236.056 69.834 232.92 68.6117 231.56 69.021L219.635 91.261L202.871 68.3628L197.893 71.6814C197.893 71.6814 185.426 78.0862 183.855 80.9458C179.701 84.4247 165.736 100.913 165.736 100.913C165.736 100.913 164.851 108.407 172.826 113.938C180.802 119.469 183.075 119.303 183.075 119.303L189.685 113.44" stroke="#5B8ECD" stroke-width="1.25" stroke-linecap="round" stroke-linejoin="round"/>
<path d="M186.881 134.231L188.081 136.128L193.125 132.893C193.125 132.893 195.708 132.262 196.327 132.837L201.493 132.666C201.493 132.666 203.457 132.566 204.259 133.413C205.061 134.259 207.97 135.492 207.97 135.492C207.97 135.492 207.909 137.151 206.72 137.068C205.614 136.803 202.329 135.531 202.329 135.531L196.383 135.78L202.041 136.3C202.655 136.375 203.245 136.587 203.767 136.919C204.237 137.362 205.631 139.054 206.986 139.729C207.765 140.205 206.615 141.322 205.326 141.018C204.038 140.713 202.251 139.17 201.04 139.071C199.829 138.971 194.79 139.17 194.79 139.17C194.79 139.17 199.154 140.382 200.033 140.763C200.909 141.202 201.758 141.692 202.577 142.229C202.577 142.229 204.032 143.23 204.856 143.285C205.039 144.342 204.425 145.055 202.411 144.945C201.162 144.863 199.958 144.444 198.927 143.733L193.252 143.097L198.601 144.757L201.079 146.416C201.079 146.416 201.737 148.667 202.865 149.38C202.577 150.614 200.918 150.398 200.055 149.745C199.386 149.147 198.824 148.438 198.396 147.649L194.524 147.096L191.925 147.124C185.774 147.472 183.153 145.376 183.153 145.376C183.153 145.376 182.102 144.657 180.454 143.495" stroke="#5B8ECD" stroke-width="1.25" stroke-linecap="round" stroke-linejoin="round"/>
<path d="M181.139 119.303L179.231 122.71C179.231 122.71 179.707 122.915 181.477 125.708L186.881 134.231" stroke="#4F7384" stroke-width="1.25" stroke-linecap="round" stroke-linejoin="round"/>
<path d="M188.02 135.962C188.02 135.962 184.956 137.837 183.861 142.334" stroke="#5B8ECD" stroke-width="1.25" stroke-linecap="round" stroke-linejoin="round"/>
<path d="M189.961 134.956C189.961 134.956 192.86 131.786 193.468 131.344C194.114 130.97 194.8 130.673 195.515 130.459C195.783 130.293 196.001 130.058 196.148 129.779C196.295 129.5 196.365 129.187 196.35 128.872C197.373 129.242 198.053 131.018 196.825 132.445" stroke="#5B8ECD" stroke-width="1.25" stroke-linecap="round" stroke-linejoin="round"/>
<path d="M168.396 98.1139C168.396 98.1139 166.626 111.466 185.542 116.781" stroke="#5B8ECD" stroke-width="1.25" stroke-linecap="round" stroke-linejoin="round"/>
<path d="M198.18 71.1007L218.518 97.3673L221.482 97.2622L236.057 69.8396" stroke="#5B8ECD" stroke-width="1.25" stroke-linecap="round" stroke-linejoin="round"/>
<path d="M201.327 33.7942C201.327 33.7942 201.466 45.105 202.893 51.4933C204.32 57.8816 209.641 63.9601 216.587 64.0265C223.534 64.0929 228.584 57.146 229.397 47.7433C230.21 38.3407 228.844 32.3451 228.844 32.3451" stroke="#4F7384" stroke-width="1.25" stroke-linecap="round" stroke-linejoin="round"/>
<path d="M229.242 39.4469C229.242 39.4469 231.692 34.6792 234.22 36.7921C236.748 38.9049 236.128 42.6494 235.039 46.1283C233.949 49.6073 230.404 52.1239 229.043 49.8728" stroke="#4F7384" stroke-width="1.25" stroke-linecap="round" stroke-linejoin="round"/>
<path d="M201.648 41.4823C201.648 41.4823 200.077 38.7555 197.777 39.9834C195.476 41.2113 194.303 47.8208 197.848 51.7699C201.394 55.719 203.379 53.1305 203.379 53.1305" stroke="#4F7384" stroke-width="1.25" stroke-linecap="round" stroke-linejoin="round"/>
<path d="M230.332 34.6128L226.786 45.7854" stroke="#3CA69B" stroke-width="1.25" stroke-linecap="round" stroke-linejoin="round"/>
<path d="M200.077 38.4292L205.459 47.8982" stroke="#3CA69B" stroke-width="1.25" stroke-linecap="round" stroke-linejoin="round"/>
<path d="M201.576 33.927C201.576 33.927 203.556 29.7069 207.506 28.3407C211.455 26.9746 218.883 26.2279 221.676 27.9314C224.469 29.635 229.419 34.4746 229.419 34.4746" stroke="#ACCAF2" stroke-width="1.25" stroke-linecap="round" stroke-linejoin="round"/>
<path d="M229.923 32.3618C229.923 32.3618 226.311 30.5918 221.676 25.2102C221.676 25.2102 214.049 27.1184 206.554 25.2102C204.508 27.2511 201.239 34.0598 198.169 36.1118" stroke="#5B8ECD" stroke-width="1.25" stroke-linecap="round" stroke-linejoin="round"/>
<path d="M199.873 34.6128C199.873 34.6128 200.282 37.6106 199.126 39.3141" stroke="#3CA69B" stroke-width="1.25" stroke-linecap="round" stroke-linejoin="round"/>
<path d="M207.915 60.8407C207.915 60.8407 208.661 65.3374 208.053 67.3175C207.445 69.2976 204.574 70.448 204.574 70.448" stroke="#4F7384" stroke-width="1.25" stroke-linecap="round" stroke-linejoin="round"/>
<path d="M224.469 60.708C224.469 60.708 225.155 66.0233 225.835 67.5885C226.516 69.1538 230.537 70.52 230.537 70.52" stroke="#4F7384" stroke-width="1.25" stroke-linecap="round" stroke-linejoin="round"/>
<path d="M179.231 122.71C179.231 122.71 175.525 119.574 168.169 121.051" stroke="#4F7384" stroke-width="1.25" stroke-linecap="round" stroke-linejoin="round"/>
<path d="M190.111 146.831V154.801C190.111 154.801 200.022 157.66 221.892 156.643C243.761 155.625 251.659 151.549 251.659 151.549" stroke="#5B8ECD" stroke-width="1.25" stroke-linecap="round" stroke-linejoin="round"/>
<path d="M190.111 154.801V159.502C190.111 159.502 202.373 161.543 223.529 161.239C244.685 160.935 252.45 157.046 252.45 157.046" stroke="#5B8ECD" stroke-width="1.25" stroke-linecap="round" stroke-linejoin="round"/>
<path d="M190.62 160.116L189.392 173.606C189.392 173.606 188.982 182.395 189.392 186.482C189.187 190.774 188.169 220.614 188.169 220.614C188.169 220.614 186.737 226.847 187.965 230.531C187.965 236.455 187.246 244.735 187.246 244.735" stroke="#5B8ECD" stroke-width="1.25" stroke-linecap="round" stroke-linejoin="round"/>
<path d="M218.009 187.71C218.009 187.71 224.347 186.051 228.23 188.12" stroke="#5B8ECD" stroke-width="1.25" stroke-linecap="round" stroke-linejoin="round"/>
<path d="M218.828 188.523C220.744 187.42 222.962 186.955 225.161 187.196" stroke="#5B8ECD" stroke-width="1.25" stroke-linecap="round" stroke-linejoin="round"/>
<path d="M224.447 187.4L228.319 214.176C228.319 214.176 228.833 222.146 229.547 225.52C230.449 231.274 231.677 236.973 233.225 242.588" stroke="#5B8ECD" stroke-width="1.25" stroke-linecap="round" stroke-linejoin="round"/>
<path d="M222.81 187.5L217.395 219.181C217.395 219.181 216.067 228.274 214.945 230.935C215.357 235.956 215.081 241.01 214.126 245.957" stroke="#5B8ECD" stroke-width="1.25" stroke-linecap="round" stroke-linejoin="round"/>
<path d="M224.746 168.429C224.541 168.429 219.768 169.452 219.768 169.452L221.267 178.579L220.586 186.007C220.586 186.007 225.083 185.393 226.117 185.868C226.086 182.606 226.338 179.347 226.869 176.128L225.166 169.856" stroke="#5B8ECD" stroke-width="1.25" stroke-linecap="round" stroke-linejoin="round"/>
<path d="M196.195 160.144C196.195 160.144 195.946 170.841 195.089 176.123C194.231 181.405 189.093 185.592 189.093 185.592" stroke="#5B8ECD" stroke-width="1.25" stroke-linecap="round" stroke-linejoin="round"/>
<path d="M198.009 160.686C198.009 160.686 196.997 175.581 196.25 179.303C195.503 183.025 189.093 188.794 189.093 188.794" stroke="#5B8ECD" stroke-width="1.25" stroke-linecap="round" stroke-linejoin="round"/>
<path d="M249.447 157.948C250 162.5 250.476 166.93 251.433 171.632V171.969C251.649 173.363 252.074 174.717 252.694 175.985" stroke="#5B8ECD" stroke-width="1.25" stroke-linecap="round" stroke-linejoin="round"/>
<path d="M247.699 158.639C248.385 163.451 249.203 168.153 250.088 173.131C250.337 174.53 250.656 175.917 251.045 177.284C251.171 177.666 251.331 178.036 251.521 178.39L251.726 178.595C252.261 179.503 252.895 180.349 253.617 181.117" stroke="#5B8ECD" stroke-width="1.25" stroke-linecap="round" stroke-linejoin="round"/>
<path d="M222.224 37.4004C222.224 38.4236 221.798 39.2533 221.267 39.2533C220.736 39.2533 220.315 38.4236 220.315 37.4004C220.315 36.3772 220.741 35.542 221.267 35.542C221.792 35.542 222.224 36.3716 222.224 37.4004Z" fill="#4F7384"/>
<path d="M210.321 38.0033C210.321 39.0265 209.895 39.8562 209.37 39.8562C208.844 39.8562 208.413 39.0265 208.413 38.0033C208.413 36.9801 208.844 36.1449 209.37 36.1449C209.895 36.1449 210.321 36.9745 210.321 38.0033Z" fill="#4F7384"/>
<path d="M218.473 32.6991C217.75 33.1956 217.154 33.8557 216.734 34.6258C216.314 35.3959 216.082 36.2543 216.056 37.1311C216.03 38.008 216.211 38.8786 216.585 39.6721C216.959 40.4656 217.515 41.1597 218.208 41.698" stroke="#4F7384" stroke-width="1.25" stroke-linecap="round" stroke-linejoin="round"/>
<path d="M219.768 32.3175C219.768 32.3175 222.179 31.6372 223.496 33.1361" stroke="#4F7384" stroke-width="1.25" stroke-linecap="round" stroke-linejoin="round"/>
<path d="M212.096 33.2687C212.096 33.2687 207.959 32.0464 205.868 34.4524" stroke="#4F7384" stroke-width="1.25" stroke-linecap="round" stroke-linejoin="round"/>
<path d="M196.903 42.8595C197.236 42.4423 197.712 42.1642 198.239 42.0793C198.766 41.9945 199.306 42.109 199.753 42.4006C200.2 42.6921 200.522 43.1398 200.657 43.6562C200.791 44.1726 200.729 44.7207 200.481 45.1935C200.188 45.7466 199.646 46.2002 199.63 46.8196C199.613 47.4391 200.183 47.9258 200.675 48.3296C201.167 48.7334 201.748 49.1814 201.781 49.8174C201.769 50.1287 201.645 50.4252 201.433 50.6534C201.221 50.8816 200.935 51.0265 200.625 51.0619C200.315 51.0892 200.002 51.0467 199.71 50.9376C199.418 50.8285 199.155 50.6555 198.938 50.4314C198.507 49.9829 198.152 49.4673 197.887 48.9048" stroke="#4F7384" stroke-width="1.25" stroke-linecap="round" stroke-linejoin="round"/>
<path d="M234.065 38.302C233.661 38.0563 233.184 37.9564 232.715 38.0189C232.246 38.0814 231.812 38.3025 231.486 38.6455C231.16 38.9885 230.961 39.4328 230.922 39.9045C230.883 40.3763 231.006 40.8471 231.272 41.2389C231.621 41.7477 232.207 42.1294 232.323 42.7378C232.347 42.9997 232.31 43.2637 232.214 43.5086C232.118 43.7535 231.966 43.9725 231.77 44.1482C231.416 44.5354 230.973 44.834 230.664 45.2544C230.364 45.5979 230.197 46.0374 230.194 46.4933C230.19 46.7227 230.251 46.9484 230.371 47.1442C230.49 47.3401 230.663 47.4979 230.868 47.5995C231.184 47.6919 231.521 47.6787 231.829 47.5619C232.136 47.4451 232.397 47.2311 232.572 46.9524C232.961 46.4362 233.156 45.8002 233.125 45.1548" stroke="#4F7384" stroke-width="1.25" stroke-linecap="round" stroke-linejoin="round"/>
<path d="M203.717 11.8916C205.79 13.6198 207.467 15.774 208.634 18.208" stroke="#5B8ECD" stroke-width="1.25" stroke-linecap="round" stroke-linejoin="round"/>
<path d="M198.009 24.01C198.536 24.6452 199.215 25.138 199.982 25.4433C200.749 25.7487 201.581 25.8568 202.4 25.7578" stroke="#5B8ECD" stroke-width="1.25" stroke-linecap="round" stroke-linejoin="round"/>
<path d="M229.298 20.9347C228.491 22.0592 227.43 22.976 226.2 23.6097C224.97 24.2434 223.607 24.5758 222.224 24.5796" stroke="#5B8ECD" stroke-width="1.25" stroke-linecap="round" stroke-linejoin="round"/>
<path d="M191.886 35.8462C192.034 36.1755 192.253 36.4681 192.527 36.7032C192.801 36.9382 193.124 37.1099 193.472 37.206C193.82 37.3021 194.185 37.3203 194.541 37.2593C194.897 37.1982 195.235 37.0595 195.531 36.8528" stroke="#5B8ECD" stroke-width="1.25" stroke-linecap="round" stroke-linejoin="round"/>
<path d="M211.106 115.597C214.73 114.329 218.577 113.819 222.406 114.098" stroke="#5B8ECD" stroke-width="1.25" stroke-linecap="round" stroke-linejoin="round"/>
<path d="M213.153 116.98C215.923 115.597 219.014 114.983 222.102 115.205" stroke="#5B8ECD" stroke-width="1.25" stroke-linecap="round" stroke-linejoin="round"/>
<path d="M184.082 97.0575C184.181 99.4249 185.012 101.703 186.46 103.579" stroke="#5B8ECD" stroke-width="1.25" stroke-linecap="round" stroke-linejoin="round"/>
<path d="M180.531 143.805C179.887 141.654 180.085 139.339 181.084 137.329C182.157 135.382 184.364 134.01 186.565 134.276" stroke="#5B8ECD" stroke-width="1.25" stroke-linecap="round" stroke-linejoin="round"/>
<path d="M209.74 51.1836C211.884 49.7914 214.295 48.8609 216.818 48.4515C219.342 48.042 221.923 48.1625 224.397 48.8053" stroke="#3CA69B" stroke-width="1.25" stroke-linecap="round" stroke-linejoin="round"/>
<path d="M210.343 54.6626C212.45 53.2522 215.155 53.0974 217.666 53.0974C220.177 53.0974 222.837 53.1914 225.149 52.1571" stroke="#3CA69B" stroke-width="1.25" stroke-linecap="round" stroke-linejoin="round"/>
<path d="M208.507 93.1748H193.28V95.9348H208.507V93.1748Z" stroke="#5B8ECD" stroke-width="1.25" stroke-linecap="round" stroke-linejoin="round"/>
<path d="M202.804 52.3285C202.804 52.3285 207.096 41.698 216.704 41.698C226.311 41.698 228.833 49.1261 228.833 49.1261" stroke="#3CA69B" stroke-width="1.25" stroke-linecap="round" stroke-linejoin="round"/>
<path d="M330.055 60.7577H329.602L329.806 64.3915C332.265 64.1488 334.737 64.0583 337.207 64.1205C341.079 64.2311 342.34 65.2267 342.34 65.2267V61.5707C342.34 61.5707 340.774 63.3628 337.163 63.136C333.551 62.9092 330.055 60.7577 330.055 60.7577Z" fill="#4F7384"/>
<path d="M363.711 116.018C363.711 116.018 368.816 115.1 372.091 114.148C375.365 113.197 380.387 110.669 380.387 110.669C380.387 110.669 377.212 114.148 372.943 115.597C370.295 116.499 367.585 117.206 364.834 117.71L363.711 116.018Z" fill="#4F7384"/>
<path d="M380.199 111.112C380.199 111.112 383.739 118.606 385.647 122.174C387.555 125.741 388.966 131.709 388.202 134.641C387.439 137.572 382.378 141.245 377.882 139.679C373.385 138.114 365.282 132.19 365.282 132.19" stroke="#4F7384" stroke-width="1.25" stroke-linecap="round" stroke-linejoin="round"/>
<path d="M363.783 116.222L366.986 122.694" stroke="#4F7384" stroke-width="1.25" stroke-linecap="round" stroke-linejoin="round"/>
<path d="M314.381 68.031C314.381 68.031 313.274 44.187 314.519 36.0067C315.763 27.8264 320.653 24.0155 320.653 24.0155C320.653 24.0155 326.919 12.0244 340.277 13.5067C353.634 14.989 358.805 28.7722 358.805 35.0388C358.805 41.3053 360.465 78.5067 360.465 78.5067L351.217 73.1803L348.855 72.1848L348.175 73.0476C348.175 73.0476 343.545 71.1837 342.92 68.031C342.549 65.7928 342.502 63.5126 342.782 61.2611C342.782 61.2611 348.595 56.8363 349.641 47.135C351.095 47.9093 354.502 47.3618 355.05 42.229C355.597 37.0963 353.944 35.2379 352.412 35.2379C350.879 35.2379 350.752 39.6626 350.752 39.6626C350.752 39.6626 344.895 40.6638 336.925 37.2567C328.955 33.8496 327.749 29.5797 327.749 29.5797C327.749 29.5797 327.837 33.8938 325.796 37.1682C323.756 40.4425 323.706 40.708 323.706 40.708L323.977 41.7091L322.389 41.3883C322.389 41.3883 321.615 37.9868 320.57 36.6649C319.524 35.343 318.208 37.5277 317.981 39.0764C317.754 40.625 318.933 46.5708 320.935 46.8861C322.937 47.2014 323.025 46.0233 323.025 46.0233C323.071 49.4483 324.094 52.7891 325.973 55.6527C329.065 60.1494 329.79 60.7854 329.79 60.7854C329.79 60.7854 330.382 65.0553 329.475 67.3286C328.568 69.6018 322.749 73.0531 322.749 73.0531L320.481 71.687L317.981 73.1416L317.074 73.0974C316.515 71.2493 315.6 69.5282 314.381 68.031Z" fill="#ACCAF2"/>
<path d="M342.417 61.5487C342.417 61.5487 341.908 66.687 343.225 68.739C344.541 70.791 348.086 72.8319 348.086 72.8319" stroke="#4F7384" stroke-width="1.25" stroke-linecap="round" stroke-linejoin="round"/>
<path d="M322.694 41.8141C322.588 45.8752 323.356 49.9115 324.945 53.6504C327.157 58.9989 331.117 62.9867 337.616 63.1194C344.115 63.2522 350.426 54.5354 349.95 40.094" stroke="#4F7384" stroke-width="1.25" stroke-linecap="round" stroke-linejoin="round"/>
<path d="M326.239 27.2345C326.239 27.2345 329.917 35.1383 337.887 37.7433C345.857 40.3484 351.449 39.5852 351.449 39.5852" stroke="#5B8ECD" stroke-width="1.25" stroke-linecap="round" stroke-linejoin="round"/>
<path d="M350.747 38.2965C350.747 38.2965 350.807 34.8894 352.837 35.3097C354.867 35.7301 355.409 38.8385 355.232 41.3496C355.055 43.8606 352.721 49.0044 349.851 47.0907" stroke="#4F7384" stroke-width="1.25" stroke-linecap="round" stroke-linejoin="round"/>
<path d="M319.137 36.5708C319.137 36.5708 317.771 38.0033 317.843 40.9292C317.915 43.8551 320.702 48.9049 322.677 46.3827" stroke="#4F7384" stroke-width="1.25" stroke-linecap="round" stroke-linejoin="round"/>
<path d="M325.354 54.0819C326.077 51.8205 327.364 49.7802 329.093 48.1527C331.82 45.7688 334.408 44.4082 337.201 44.4082C339.994 44.4082 341.836 46.7921 344.768 47.8153C345.758 48.1147 346.638 48.7021 347.294 49.5029C347.95 50.3037 348.353 51.2815 348.451 52.312" stroke="#3CA69B" stroke-width="1.12" stroke-linecap="round" stroke-linejoin="round"/>
<path d="M327.373 29.1648C327.373 29.1648 327.705 31.604 326.477 35.177C325.249 38.75 323.612 40.3761 323.612 40.3761L323.816 41.9082L322.107 41.5044C322.107 41.5044 322.107 36.8252 319.652 36.1449" stroke="#5B8ECD" stroke-width="1.25" stroke-linecap="round" stroke-linejoin="round"/>
<path d="M329.508 60.1881C329.508 60.1881 330.691 65.7799 329.054 68.3684C327.417 70.9569 322.378 73.0089 322.378 73.0089" stroke="#4F7384" stroke-width="1.25" stroke-linecap="round" stroke-linejoin="round"/>
<path d="M320.697 71.6372L334.812 85.9458L348.861 72.1792L352.627 73.7722L335.813 90.4868L317.926 73.1361L320.697 71.6372Z" stroke="#5B8ECD" stroke-width="1.12" stroke-linecap="round" stroke-linejoin="round"/>
<path d="M352.627 73.7721L362.755 80.1438C362.755 80.1438 365.62 81.8031 368.175 86.073C370.73 90.3429 380.896 110.409 380.896 110.409C377.053 112.539 372.942 114.145 368.673 115.183C361.682 116.842 359.773 115.736 359.773 115.736" stroke="#5B8ECD" stroke-width="1.12" stroke-linecap="round" stroke-linejoin="round"/>
<path d="M360.929 112.506C360.929 112.506 365.94 113.197 370.437 112.063C374.934 110.929 379.558 108.02 379.558 108.02" stroke="#5B8ECD" stroke-width="1.12" stroke-linecap="round" stroke-linejoin="round"/>
<path d="M363.352 91.7146L361.941 97.7544C361.941 97.7544 362.384 103.617 362.351 106.919C362.317 110.221 360 113.556 359.624 117.14C359.248 120.725 359.657 122.118 359.657 122.118" stroke="#5B8ECD" stroke-width="1.12" stroke-linecap="round" stroke-linejoin="round"/>
<path d="M368.617 128.623C368.617 128.623 365.962 131.753 363.639 132.71C362.297 133.251 361.018 133.935 359.823 134.751" stroke="#4F7384" stroke-width="1.25" stroke-linecap="round" stroke-linejoin="round"/>
<path d="M348.451 129.917C348.451 129.917 355.266 121.621 360.785 122.013C363.793 122.193 366.766 122.751 369.635 123.673L380.874 124.558C380.874 124.558 383.872 124.9 385.984 128.921" stroke="#4F7384" stroke-width="1.25" stroke-linecap="round" stroke-linejoin="round"/>
<path d="M360.918 134.104C360.918 134.104 363.368 148.413 362.245 155.16C363.982 157.201 345.487 158.839 333.833 158.839C326.896 158.851 319.977 158.132 313.191 156.692" stroke="#5B8ECD" stroke-width="1.12" stroke-linecap="round" stroke-linejoin="round"/>
<path d="M313.291 151.278C313.291 151.278 318.302 153.219 334.552 153.219C350.802 153.219 362.246 148.927 362.246 148.927" stroke="#5B8ECD" stroke-width="1.12" stroke-linecap="round" stroke-linejoin="round"/>
<path d="M346.339 128.993C346.339 128.993 354.989 134.447 359.795 135.16C359.762 136.117 358.877 138.479 358.877 138.479C358.877 138.479 350.631 138.241 345.282 133.164C345.531 131.749 345.884 130.356 346.339 128.993V128.993Z" stroke="#5B8ECD" stroke-width="1.12" stroke-linecap="round" stroke-linejoin="round"/>
<path d="M355.536 94.281H343.612V96.9359H355.536V94.281Z" stroke="#5B8ECD" stroke-width="1.12" stroke-linecap="round" stroke-linejoin="round"/>
<path d="M361.123 156.383C361.123 156.383 362.229 170.896 361.328 178.357C360.426 185.819 360.608 201.964 360.608 201.964C360.608 201.964 361.222 206.77 360.1 209.934C360.304 215.354 359.547 244.74 359.547 244.74" stroke="#5B8ECD" stroke-width="1.12" stroke-linecap="round" stroke-linejoin="round"/>
<path d="M356.836 157.633C357.235 160.913 358.07 165.99 359.602 168.556C359.403 181.333 359.602 201.975 359.602 201.975" stroke="#5B8ECD" stroke-width="1.12" stroke-linecap="round" stroke-linejoin="round"/>
<path d="M334.143 170.387C334.143 170.387 335.249 190.299 336.289 197.777C337.328 205.254 337.821 210.73 337.821 210.73C337.821 210.73 338.617 228.982 341.886 244.718" stroke="#5B8ECD" stroke-width="1.12" stroke-linecap="round" stroke-linejoin="round"/>
<path d="M334.143 176.925L332.412 208.097L332.815 213.003C332.815 213.003 333.125 220.155 333.02 226.084C332.915 232.013 331.488 244.74 331.488 244.74" stroke="#5B8ECD" stroke-width="1.12" stroke-linecap="round" stroke-linejoin="round"/>
<path d="M331.007 40.6693C331.007 41.7754 330.581 42.7102 330.055 42.7102C329.53 42.7102 329.093 41.7976 329.093 40.6693C329.093 39.5409 329.519 38.6228 330.05 38.6228C330.581 38.6228 331.007 39.5354 331.007 40.6693Z" fill="#4F7384"/>
<path d="M343.838 40.6693C343.838 41.7754 343.413 42.7102 342.887 42.7102C342.362 42.7102 341.93 41.7976 341.93 40.6693C341.93 39.5409 342.362 38.6228 342.887 38.6228C343.413 38.6228 343.838 39.5354 343.838 40.6693Z" fill="#4F7384"/>
<path d="M338.368 39.9115C337.779 40.5525 337.452 41.3915 337.452 42.2622C337.452 43.1329 337.779 43.9718 338.368 44.6128" stroke="#4F7384" stroke-width="1.25" stroke-linecap="round" stroke-linejoin="round"/>
<path d="M329.983 51.4933C329.983 51.4933 335.913 52.4447 343.684 50.0608" stroke="#3CA69B" stroke-width="0.75" stroke-miterlimit="10" stroke-linecap="round"/>
<path d="M330.393 55.5144C334.976 56.1108 339.632 55.7855 344.087 54.5575" stroke="#3CA69B" stroke-width="0.75" stroke-miterlimit="10" stroke-linecap="round"/>
<path d="M335.089 85.8296L335.813 90.4867" stroke="#5B8ECD" stroke-width="0.75" stroke-miterlimit="10" stroke-linecap="round"/>
<path d="M361.67 97.417C361.67 97.417 363.44 94.552 365.144 95.2323" stroke="#5B8ECD" stroke-width="1.25" stroke-miterlimit="10" stroke-linecap="round"/>
<path d="M334.004 114.585C334.004 114.585 337.14 112.926 342.66 113.562" stroke="#5B8ECD" stroke-width="0.75" stroke-miterlimit="10" stroke-linecap="round"/>
<path d="M336.593 114.995C338.542 114.359 340.658 114.479 342.522 115.332" stroke="#5B8ECD" stroke-width="0.75" stroke-miterlimit="10" stroke-linecap="round"/>
<path d="M344.839 134.071C344.839 134.071 343.18 141.294 347.904 145.243" stroke="#5B8ECD" stroke-width="0.75" stroke-miterlimit="10" stroke-linecap="round"/>
<path d="M343.684 137.135C343.684 137.135 342.793 141.908 344.701 145.243" stroke="#5B8ECD" stroke-width="0.75" stroke-miterlimit="10" stroke-linecap="round"/>
<path d="M359.419 139.657C359.419 139.657 358.125 143.678 356.764 145.243" stroke="#5B8ECD" stroke-width="0.75" stroke-miterlimit="10" stroke-linecap="round"/>
<path d="M329.508 24.4414C329.508 24.4414 334.867 30.2102 339.32 32.7987C343.772 35.3872 350.111 33.9381 350.111 33.9381" stroke="#5B8ECD" stroke-width="1.25" stroke-linecap="round" stroke-linejoin="round"/>
<path d="M331.825 22.1239C331.825 22.1239 339.093 26.7146 344.906 26.9414C350.719 27.1681 352.041 25.3485 352.041 25.3485" stroke="#5B8ECD" stroke-width="1.25" stroke-linecap="round" stroke-linejoin="round"/>
<path d="M324.287 26.4878C324.287 26.4878 325.332 32.1183 321.903 36.5708" stroke="#5B8ECD" stroke-width="1.25" stroke-linecap="round" stroke-linejoin="round"/>
<path d="M321.787 26.167C321.787 26.167 316.654 33.9104 316.925 43.3849" stroke="#5B8ECD" stroke-width="1.25" stroke-linecap="round" stroke-linejoin="round"/>
<path d="M331.189 170.299C331.189 170.299 334.867 169.839 336.549 170.796" stroke="#5B8ECD" stroke-width="1.12" stroke-linecap="round" stroke-linejoin="round"/>
<path d="M345.725 207.412C345.725 207.412 347.085 209.729 348.584 212.66" stroke="#5B8ECD" stroke-width="1.12" stroke-linecap="round" stroke-linejoin="round"/>
<path d="M357.035 209.021C356.007 211.935 354.22 214.522 351.858 216.515" stroke="#5B8ECD" stroke-width="1.12" stroke-linecap="round" stroke-linejoin="round"/>
<path d="M355.741 214.541C355.741 214.541 354.038 218.219 352.423 220.072" stroke="#5B8ECD" stroke-width="1.12" stroke-linecap="round" stroke-linejoin="round"/>
<path d="M310.454 204.934C310.559 207.666 311.084 209.768 311.61 212.395C311.61 221.842 313.186 231.82 313.656 241.023" stroke="#3CA69B" stroke-width="1.12" stroke-linecap="round" stroke-linejoin="round"/>
<path d="M324.115 206.637L322.207 210.929" stroke="#5B8ECD" stroke-width="1.12" stroke-linecap="round" stroke-linejoin="round"/>
<path d="M324.264 210.315C323.38 211.601 322.582 212.945 321.875 214.336" stroke="#5B8ECD" stroke-width="1.12" stroke-linecap="round" stroke-linejoin="round"/>
<path d="M352.605 48.1195C352.174 50.7799 352.672 53.4956 353.335 56.1062C353.999 58.7169 354.823 61.2998 355.066 63.9823C355.31 66.6649 354.895 69.5133 353.285 71.6759" stroke="#5B8ECD" stroke-width="1.25" stroke-linecap="round" stroke-linejoin="round"/>
<path d="M349.098 70.166C349.491 66.3578 349.115 62.5096 347.992 58.8496" stroke="#5B8ECD" stroke-width="1.25" stroke-linecap="round" stroke-linejoin="round"/>
<path d="M321.477 49.8119C321.764 51.8915 321.383 53.9988 320.924 56.0398C320.465 58.0807 319.867 60.1161 319.757 62.2123C319.646 64.3086 320.055 66.5099 321.361 68.1471" stroke="#5B8ECD" stroke-width="1.25" stroke-linecap="round" stroke-linejoin="round"/>
<path d="M325.924 68.7555C324.926 67.2306 324.359 65.4643 324.283 63.6435C324.207 61.8227 324.625 60.0153 325.492 58.4126" stroke="#5B8ECD" stroke-width="1.25" stroke-linecap="round" stroke-linejoin="round"/>
<path d="M350.564 40.5199L345.658 49.1095" stroke="#3CA69B" stroke-width="0.75" stroke-miterlimit="10" stroke-linecap="round"/>
<path d="M321.333 39.0929L327.943 51.0177" stroke="#3CA69B" stroke-width="0.75" stroke-miterlimit="10" stroke-linecap="round"/>
<path d="M353.175 37.0575C352.873 37.1346 352.595 37.2823 352.362 37.4885C352.129 37.6947 351.949 37.9533 351.836 38.2431C351.723 38.5328 351.68 38.8453 351.712 39.1547C351.744 39.4641 351.849 39.7614 352.019 40.0221C352.168 40.2599 352.367 40.4646 352.511 40.7079C352.589 40.8248 352.637 40.9593 352.651 41.0992C352.664 41.2391 352.643 41.3802 352.588 41.5099C352.497 41.638 352.377 41.7425 352.238 41.8147C352.098 41.8869 351.943 41.9246 351.786 41.9248C351.474 41.9222 351.164 41.9805 350.874 42.0962C350.708 42.196 350.573 42.3398 350.484 42.5117C350.395 42.6836 350.356 42.8767 350.37 43.0697C350.406 43.4577 350.588 43.8177 350.879 44.0763C351.193 44.363 351.59 44.5426 352.012 44.5895C352.435 44.6363 352.861 44.5479 353.23 44.337C353.599 44.1261 353.891 43.8035 354.065 43.4157C354.239 43.028 354.286 42.595 354.198 42.1792" stroke="#4F7384" stroke-width="1.25" stroke-linecap="round" stroke-linejoin="round"/>
<path d="M319.795 37.0575C319.996 37.1908 320.165 37.3662 320.292 37.5716C320.418 37.777 320.497 38.0073 320.526 38.2467C320.651 38.8365 320.618 39.4488 320.431 40.0221C320.349 40.2599 320.238 40.4646 320.16 40.7079C320.071 40.9659 320.056 41.2437 320.116 41.5099C320.141 41.6139 320.196 41.7084 320.273 41.7821C320.351 41.8557 320.448 41.9052 320.553 41.9248C320.735 41.9247 320.912 41.985 321.056 42.0962C321.264 42.3765 321.362 42.7224 321.333 43.0697C321.323 43.4233 321.226 43.769 321.051 44.0763C320.714 44.6626 320.16 44.7787 319.757 44.3584C319.292 43.7336 319.093 42.9501 319.204 42.1792" stroke="#4F7384" stroke-width="1.25" stroke-linecap="round" stroke-linejoin="round"/>
<path d="M366.986 130.437C367.048 131.788 367.47 133.098 368.208 134.231C366.35 132.915 365.078 132.019 365.078 132.019L366.986 130.437Z" fill="#4F7384"/>
<path d="M313.744 156.803C313.744 156.803 321.012 159.347 335.686 158.85C344.236 158.591 352.756 157.694 361.173 156.167C361.173 156.167 351.543 160.26 335.177 160.393C318.811 160.525 313.744 156.803 313.744 156.803Z" fill="#5B8ECD"/>
<path d="M346.543 96.8473L355.266 96.7588L355.083 98.2577L346.543 96.8473Z" fill="#5B8ECD"/>
<path d="M362.207 100.266C362.793 105.769 363.225 111.56 366.178 112.506L361.488 112.638L361.029 111.886C361.029 111.886 362.373 109.121 362.34 106.665C362.306 104.209 362.207 100.266 362.207 100.266Z" fill="#5B8ECD"/>
<path d="M253.236 118.529L272.002 111.377C272.002 111.377 296.549 114.652 310.055 115.653C312.821 115.857 306.737 117.03 299.79 117.163C292.843 117.295 280.028 112.942 272.4 114.259C264.773 115.575 253.236 118.529 253.236 118.529Z" fill="#3CA69B"/>
<path d="M273.059 52.3009C272.207 52.7312 271.38 53.2075 270.581 53.7279" stroke="#3CA69B" stroke-width="1.37" stroke-linecap="round" stroke-linejoin="round"/>
<path d="M286.958 51.8916C287.88 52.1027 288.779 52.4066 289.64 52.7987" stroke="#3CA69B" stroke-width="1.37" stroke-linecap="round" stroke-linejoin="round"/>
<path d="M292.384 10.8739C292.384 10.8739 296.062 14.7456 294.292 21.8197C294.292 21.8197 293.186 20.6416 291.023 22.4779C290.951 19.0044 290.227 13.396 290.227 13.396L292.384 10.8739Z" fill="#ACCAF2"/>
<path d="M270.265 42.4447C269.629 41.5044 268.982 40.5697 268.352 39.6239C267.92 38.9768 267.279 38.2467 266.526 38.4403C266.438 38.4614 266.354 38.4969 266.277 38.5453C265.492 38.5066 263.65 38.1361 262.699 35.6084C262.699 35.6084 257.588 39.6958 255.885 45.4203C254.181 51.1449 248.258 53.938 244.508 55.9292C240.758 57.9203 237.08 62.6051 239.397 66.5542C241.714 70.5033 244.574 71.0564 246.759 70.7135C246.759 70.7135 249.037 66.7976 251.255 65.0221C253.473 63.2467 257.826 61.2776 257.826 61.2776V61.2334C258.833 60.8848 259.816 60.4709 260.769 59.9945C261.451 59.7443 262.007 59.2356 262.317 58.5785C262.516 57.9757 262.317 57.3175 262.384 56.6925C262.468 56.2679 262.641 55.8659 262.891 55.5131C263.142 55.1603 263.465 54.8648 263.838 54.646C264.557 54.1648 265.376 53.8606 266.128 53.4292C267.297 52.7627 268.279 51.8114 268.982 50.6637C269.929 48.8785 270.437 46.8934 270.464 44.8728C270.542 44.0597 270.741 43.1416 270.265 42.4447Z" fill="#ACCAF2"/>
<path d="M281.775 0.243359C266.925 -1.59292 259.021 7.26217 257.992 15.3706C256.963 23.479 258.545 25.7965 258.545 25.7965L258.778 25.896C258.673 25.3429 259.137 24.7898 259.585 24.4801C260.163 24.0459 260.824 23.7352 261.527 23.5675C261.917 23.4676 262.325 23.4659 262.716 23.5624C263.107 23.6589 263.468 23.8507 263.767 24.1206C264.425 24.8451 264.071 25.9403 264.181 26.8197C264.252 27.2599 264.361 27.6931 264.508 28.1139C270.78 26.2777 271.239 21.9856 270.525 18.7113C272.738 19.9889 276.538 20.7688 282.389 19.5243C295.199 16.8031 296.632 2.08517 281.775 0.243359Z" fill="#ACCAF2"/>
<path d="M285.592 42.4889C285.592 42.4889 285.398 50.3318 287.163 52.5719C288.272 53.9395 289.806 54.8988 291.521 55.2986" stroke="#4F7384" stroke-width="1.25" stroke-linecap="round" stroke-linejoin="round"/>
<path d="M306.034 59.8617C304.653 63.05 303.889 66.4715 303.783 69.9447" stroke="#3CA69B" stroke-width="1.37" stroke-linecap="round" stroke-linejoin="round"/>
<path d="M239.193 111.919C239.193 111.919 237.627 109.74 237.694 105.719C237.76 101.698 241.305 96.3827 247.235 95.4314C253.164 94.4801 260.249 96.1117 260.249 96.1117" stroke="#3CA69B" stroke-width="1.37" stroke-linecap="round" stroke-linejoin="round"/>
<path d="M268.567 56.5763L268.424 56.6593C268.424 56.6593 264.745 56.7975 262.633 58.7057C259.701 60.1382 254.049 63.5398 254.049 63.5398C254.049 63.5398 249.275 64.9723 246.349 71.8363C243.424 78.7002 239.74 94.4082 238.103 102.876" stroke="#3CA69B" stroke-width="1.37" stroke-linecap="round" stroke-linejoin="round"/>
<path d="M272.782 44.5354C272.782 44.5354 273.396 51.687 272.92 52.9812C272.494 54.1316 269.286 56.1339 268.567 56.5763" stroke="#4F7384" stroke-width="1.25" stroke-linecap="round" stroke-linejoin="round"/>
<path d="M254.049 63.5398C254.049 63.5398 258.142 69.9834 259.264 74.7898C260.387 79.5962 260.592 87.4613 260.592 87.4613" stroke="#3CA69B" stroke-width="1.37" stroke-linecap="round" stroke-linejoin="round"/>
<path d="M260.586 96.0454L260.697 90.7301" stroke="#3CA69B" stroke-width="1.37" stroke-linecap="round" stroke-linejoin="round"/>
<path d="M305.968 92.4668C306.389 88.6675 306.493 84.8397 306.278 81.0232" stroke="#3CA69B" stroke-width="1.37" stroke-linecap="round" stroke-linejoin="round"/>
<path d="M262.229 58.844L279.043 67.0244C279.613 67.3014 280.248 67.418 280.88 67.3615C281.511 67.305 282.115 67.0775 282.627 66.7036L296.289 56.7478" stroke="#3CA69B" stroke-width="1.37" stroke-linecap="round" stroke-linejoin="round"/>
<path d="M268.291 56.4547L280.625 62.7323L291.521 55.2987" stroke="#3CA69B" stroke-width="1.37" stroke-linecap="round" stroke-linejoin="round"/>
<path d="M280.625 62.7268V67.4281" stroke="#3CA69B" stroke-width="1.37" stroke-linecap="round" stroke-linejoin="round"/>
<path d="M253.236 118.529C253.236 118.529 253.645 127.931 253.236 133.142C252.826 138.352 251.394 147.146 252.318 150.105C253.241 153.064 263.556 157.671 284.198 157.671C304.84 157.671 313.512 151.128 313.733 148.164C313.955 145.199 311.693 132.633 311.488 128.031C311.283 123.429 310.597 115.531 310.597 115.531" stroke="#3CA69B" stroke-width="1.37" stroke-linecap="round" stroke-linejoin="round"/>
<path d="M255.409 137.832L255.68 134.198C261.144 136.276 266.994 137.144 272.826 136.742V140.968C272.826 140.968 262.721 141.466 255.409 137.832Z" stroke="#3CA69B" stroke-width="1.37" stroke-linecap="round" stroke-linejoin="round"/>
<path d="M310.802 137.013L310.531 133.379C305.067 135.458 299.217 136.326 293.385 135.924V140.149C293.385 140.149 303.49 140.647 310.802 137.013Z" stroke="#3CA69B" stroke-width="1.37" stroke-linecap="round" stroke-linejoin="round"/>
<path d="M263.789 23.136C263.789 23.136 263.722 44.8008 279.53 46.2334C279.53 46.2334 293.02 44.5741 290.702 14.8285" stroke="#4F7384" stroke-width="1.25" stroke-linecap="round" stroke-linejoin="round"/>
<path d="M263.667 24.2754C263.711 24.3241 263.752 24.3758 263.789 24.4303C263.789 24.4303 265.763 29.6128 269.32 31.792" stroke="#3CA69B" stroke-width="1.37" stroke-linecap="round" stroke-linejoin="round"/>
<path d="M265.63 33.5619C264.403 36.084 261.206 34.3141 259.701 31.9966C258.197 29.6792 257.793 25.0442 260.254 23.8882C262.234 22.9535 263.324 23.8882 263.672 24.2754" stroke="#4F7384" stroke-width="1.25" stroke-linecap="round" stroke-linejoin="round"/>
<path d="M290.974 22.7987C290.974 22.7987 293.363 20.0332 295.133 22.9315C296.903 25.8297 294.065 35.4481 290.111 32.5886" stroke="#4F7384" stroke-width="1.25" stroke-linecap="round" stroke-linejoin="round"/>
<path d="M262.904 34.9945C262.904 34.9945 262.633 38.5343 267.262 38.468" stroke="#3CA69B" stroke-width="1.37" stroke-linecap="round" stroke-linejoin="round"/>
<path d="M291.178 21.0951C290.91 24.26 289.957 27.3287 288.385 30.0885" stroke="#3CA69B" stroke-width="1.37" stroke-linecap="round" stroke-linejoin="round"/>
<path d="M253.23 151.914C253.23 151.914 252.55 170.581 253.363 183.391C254.176 196.2 256.77 231.361 256.77 231.361C256.095 235.641 255.734 239.965 255.691 244.298" stroke="#5B8ECD" stroke-width="1.37" stroke-linecap="round" stroke-linejoin="round"/>
<path d="M311.007 151.643C311.007 151.643 313.462 165.404 313.186 177.533C312.915 203.285 312.506 227.815 312.506 227.815C312.506 227.815 313.247 236.162 313.656 244.336" stroke="#3CA69B" stroke-width="1.37" stroke-linecap="round" stroke-linejoin="round"/>
<path d="M288.999 174.143C288.999 174.143 286.737 175.111 281.914 174.696" stroke="#3CA69B" stroke-width="1.37" stroke-linecap="round" stroke-linejoin="round"/>
<path d="M284.845 175.282C286.268 175.564 287.736 175.517 289.137 175.144" stroke="#3CA69B" stroke-width="1.37" stroke-linecap="round" stroke-linejoin="round"/>
<path d="M284.436 175.077C284.436 175.077 284.845 204.989 283.96 213.711C283.501 218.514 282.796 223.29 281.847 228.02C281.763 230.396 281.512 232.764 281.095 235.105C280.808 242.765 280.763 244.336 280.763 244.336" stroke="#3CA69B" stroke-width="1.37" stroke-linecap="round" stroke-linejoin="round"/>
<path d="M284.569 204.093L285.459 227.257C285.459 227.257 284.978 232.367 285.935 235.553C286.344 241.892 286.444 244.309 286.444 244.309" stroke="#3CA69B" stroke-width="1.37" stroke-linecap="round" stroke-linejoin="round"/>
<path d="M284.165 26.0454C284.602 26.0454 284.956 25.2827 284.956 24.3418C284.956 23.401 284.602 22.6383 284.165 22.6383C283.728 22.6383 283.374 23.401 283.374 24.3418C283.374 25.2827 283.728 26.0454 284.165 26.0454Z" fill="#4F7384"/>
<path d="M273.783 24.7953C273.783 25.7356 273.424 26.4989 272.987 26.4989C272.55 26.4989 272.196 25.7356 272.196 24.7953C272.196 23.8551 272.55 23.0918 272.987 23.0918C273.424 23.0918 273.783 23.8551 273.783 24.7953Z" fill="#4F7384"/>
<path d="M283.706 21.0177C283.866 20.9845 279.685 21.8307 279.209 24.9281C278.756 27.8816 280.254 29.198 280.254 29.198" stroke="#4F7384" stroke-width="1.25" stroke-linecap="round" stroke-linejoin="round"/>
<path d="M273.44 35.1328C276.892 33.6925 280.721 33.4205 284.342 34.3584" stroke="#3CA69B" stroke-width="1.37" stroke-miterlimit="10" stroke-linecap="round"/>
<path d="M273.667 39.6294C273.667 39.6294 279.751 36.3993 285.387 38.7665" stroke="#3CA69B" stroke-width="1.37" stroke-miterlimit="10" stroke-linecap="round"/>
<path d="M293.695 23.2301C293.389 23.1396 293.064 23.1406 292.759 23.2329C292.454 23.3252 292.183 23.5048 291.978 23.7495C291.774 23.9941 291.646 24.2932 291.61 24.6098C291.574 24.9264 291.632 25.2466 291.775 25.531C292.077 25.9894 292.451 26.3964 292.882 26.7367C293.263 27.1294 293.65 27.6106 293.484 28.1305C293.208 29.01 291.715 29.2367 291.615 30.1715C291.597 30.3701 291.653 30.5685 291.774 30.7272C291.895 30.886 292.071 30.9936 292.268 31.0288C292.366 31.0379 292.464 31.0268 292.558 30.9962C292.652 30.9655 292.738 30.916 292.811 30.8507C292.885 30.7853 292.945 30.7056 292.986 30.6163C293.028 30.5271 293.05 30.4303 293.053 30.3319" stroke="#4F7384" stroke-width="1.25" stroke-linecap="round" stroke-linejoin="round"/>
<path d="M259.806 26.0841C259.985 25.7836 260.272 25.5627 260.608 25.4664C260.944 25.3701 261.304 25.4057 261.614 25.566C261.925 25.7263 262.163 25.9991 262.279 26.3287C262.395 26.6583 262.381 27.0199 262.24 27.3396C262.064 27.6509 261.854 27.9421 261.615 28.2079C261.493 28.3372 261.402 28.4926 261.35 28.6622C261.297 28.8319 261.284 29.0114 261.311 29.1869C261.37 29.3457 261.466 29.4887 261.59 29.6047C261.713 29.7208 261.862 29.8068 262.024 29.8562C262.34 29.9723 262.682 30.0055 263.009 30.1106C263.317 30.1981 263.598 30.3613 263.827 30.5854C264.056 30.8096 264.226 31.0875 264.32 31.3938C264.397 31.7052 264.357 32.0344 264.206 32.3175C264.054 32.6007 263.803 32.8175 263.501 32.9259C263.217 32.9765 262.924 32.9421 262.659 32.8269C262.395 32.7118 262.17 32.5211 262.013 32.2787C261.711 31.7874 261.511 31.2399 261.427 30.6692" stroke="#4F7384" stroke-width="1.25" stroke-linecap="round" stroke-linejoin="round"/>
<path d="M302.544 155.525C302.544 155.525 304.829 168.197 311.571 174.43C312.085 186.897 311.471 212.345 311.471 212.345" stroke="#3CA69B" stroke-width="1.37" stroke-linecap="round" stroke-linejoin="round"/>
<path d="M259.878 155.05C259.878 155.05 257.743 165.929 254.463 170.852C254.662 181.582 256.609 213.778 256.609 213.778" stroke="#3CA69B" stroke-width="1.37" stroke-linecap="round" stroke-linejoin="round"/>
<path d="M269.098 3.51221C268.014 4.43706 267.303 5.72552 267.099 7.1365C266.896 8.54748 267.213 9.9843 267.992 11.1781" fill="#ACCAF2"/>
<path d="M263.65 9.1095C265.028 9.8401 266.141 10.9856 266.831 12.3838L263.65 9.1095Z" fill="#ACCAF2"/>
<path d="M265.022 43.4126C265.035 43.9391 264.891 44.4576 264.609 44.9019C264.326 45.3462 263.917 45.6961 263.435 45.9071" fill="#ACCAF2"/>
<path d="M244.806 59.6681C244.126 61.4988 243.579 63.4402 243.816 65.3816C244.054 67.323 245.238 69.2533 247.096 69.8451" stroke="#5B8ECD" stroke-width="1.25" stroke-linecap="round" stroke-linejoin="round"/>
<path d="M310.055 94.8838C310.055 94.8838 304.309 90.5918 298.108 90.8628C291.908 91.1338 271.897 93.3185 260.586 96.0453C249.275 98.7721 244.983 99.5851 241.986 103.789C238.988 107.992 238.667 111.692 240.625 114.757C242.583 117.821 246.759 119.663 252.887 118.628C259.015 117.594 285.592 105.088 291.316 102.649C297.041 100.21 304.668 97.2013 304.668 97.2013" stroke="#4F7384" stroke-width="1.25" stroke-linecap="round" stroke-linejoin="round"/>
<path d="M272.168 111.444C272.168 111.444 290.974 114.508 302.97 115.122C314.967 115.736 320.476 115.597 323.07 110.896C325.664 106.195 323.75 100.47 323.75 100.47" stroke="#4F7384" stroke-width="1.25" stroke-linecap="round" stroke-linejoin="round"/>
<path d="M299.386 156.173C299.386 156.173 300.785 169.9 311.554 177.943" stroke="#3CA69B" stroke-width="1.37" stroke-linecap="round" stroke-linejoin="round"/>
<path d="M262.494 155.592C262.494 155.592 262.633 164.043 254.458 174.259" stroke="#3CA69B" stroke-width="1.37" stroke-linecap="round" stroke-linejoin="round"/>
<path d="M266.377 35.8131C266.377 35.8131 268.081 29.8175 278.761 29.3142C289.441 28.8108 290.232 31.2002 290.232 31.2002" stroke="#3CA69B" stroke-width="1.37" stroke-linecap="round" stroke-linejoin="round"/>
<path d="M291.521 55.3097C291.521 55.3097 295.271 55.6471 296.289 56.7422C299.358 57.3506 306.034 59.8727 306.034 59.8727C307.938 60.4789 309.699 61.4655 311.21 62.7729C312.72 64.0802 313.95 65.6809 314.823 67.4778C317.887 73.6781 324.635 100.796 324.635 100.796C322.354 99.7083 319.983 98.8182 317.55 98.136C313.125 96.8418 304.668 97.1847 304.668 97.1847C304.668 97.1847 305.896 95.6194 309.712 95.0055C313.529 94.3916 321.162 95.5586 323.274 96.7754" stroke="#3CA69B" stroke-width="1.37" stroke-linecap="round" stroke-linejoin="round"/>
<path d="M289.64 52.7987C291.436 53.5533 293.001 54.7687 294.176 56.3219C295.437 58.1084 296.388 63.2246 297.058 67.771" stroke="#3CA69B" stroke-width="1.37" stroke-linecap="round" stroke-linejoin="round"/>
<path d="M270.581 53.7279C268.778 54.9005 266.532 56.6649 265.835 58.5675C264.607 61.8861 266.244 76.6925 266.244 76.6925" stroke="#3CA69B" stroke-width="1.37" stroke-linecap="round" stroke-linejoin="round"/>
<path d="M269.989 79.7566C269.989 80.39 269.801 81.0092 269.449 81.5358C269.097 82.0625 268.597 82.4729 268.012 82.7153C267.427 82.9577 266.783 83.0211 266.162 82.8975C265.541 82.774 264.97 82.469 264.522 82.0211C264.074 81.5732 263.769 81.0026 263.646 80.3814C263.522 79.7602 263.586 79.1163 263.828 78.5311C264.07 77.9459 264.481 77.4458 265.007 77.0939C265.534 76.742 266.153 76.5542 266.787 76.5542C267.207 76.5542 267.624 76.637 268.012 76.798C268.401 76.9589 268.754 77.1948 269.051 77.4922C269.348 77.7895 269.584 78.1426 269.745 78.5311C269.906 78.9197 269.989 79.3361 269.989 79.7566V79.7566Z" stroke="#3CA69B" stroke-width="1.37" stroke-linecap="round" stroke-linejoin="round"/>
<path d="M293.291 75.1272C293.291 75.1272 292.738 68.3131 297.312 67.8374C301.886 67.3617 301.875 76.0785 301.875 76.0785" stroke="#3CA69B" stroke-width="1.37" stroke-linecap="round" stroke-linejoin="round"/>
<path d="M303.512 77.3728C303.512 77.6562 303.428 77.9331 303.271 78.1687C303.113 78.4043 302.89 78.5879 302.628 78.6963C302.366 78.8047 302.078 78.8331 301.8 78.7778C301.522 78.7226 301.267 78.5861 301.067 78.3858C300.866 78.1854 300.73 77.9302 300.675 77.6523C300.619 77.3744 300.648 77.0864 300.756 76.8246C300.865 76.5629 301.048 76.3391 301.284 76.1817C301.519 76.0243 301.796 75.9403 302.08 75.9403C302.46 75.9403 302.824 76.0912 303.093 76.3599C303.361 76.6285 303.512 76.9929 303.512 77.3728Z" stroke="#3CA69B" stroke-width="1.37" stroke-linecap="round" stroke-linejoin="round"/>
<path d="M294.862 76.4214C294.862 76.7048 294.778 76.9817 294.62 77.2173C294.463 77.4529 294.239 77.6365 293.977 77.7449C293.716 77.8533 293.428 77.8817 293.15 77.8264C292.872 77.7712 292.617 77.6347 292.416 77.4344C292.216 77.234 292.079 76.9788 292.024 76.7009C291.969 76.423 291.997 76.135 292.106 75.8732C292.214 75.6115 292.398 75.3877 292.633 75.2303C292.869 75.0729 293.146 74.9889 293.429 74.9889C293.617 74.9882 293.804 75.0247 293.978 75.0965C294.152 75.1682 294.311 75.2737 294.444 75.4068C294.577 75.54 294.682 75.6982 294.754 75.8724C294.826 76.0465 294.862 76.2331 294.862 76.4214V76.4214Z" stroke="#3CA69B" stroke-width="1.37" stroke-linecap="round" stroke-linejoin="round"/>
<path d="M306.692 95.636C304.919 95.375 303.108 95.6767 301.515 96.4989C299.06 97.8595 296.792 100.631 296.792 100.631L304.375 97.2234C304.622 96.8055 304.957 96.4467 305.357 96.1724C305.758 95.8982 306.214 95.7151 306.692 95.636Z" fill="#4F7384"/>
<path d="M253.706 151.549L253.153 152.505L253.014 158.23C253.014 158.23 263.634 159.674 281.018 159.043C301.687 158.296 311.991 159.862 311.991 159.862L310.968 151.62C310.968 151.62 306.333 156.731 287.329 157.478C268.324 158.224 257.931 154.707 253.706 151.549Z" fill="#3CA69B"/>
<path d="M284.253 16.7423C281.37 18.2203 278.018 18.4962 274.931 17.5094C271.844 16.5226 269.274 14.3536 267.782 11.4768C267.292 10.6397 267.048 9.68094 267.08 8.71128C267.107 8.22722 267.28 7.76279 267.577 7.37886C267.873 6.99493 268.278 6.70941 268.739 6.55973C269.845 6.28871 271.023 7.19026 271.416 8.27986C271.925 9.70132 271.416 11.3164 270.586 12.5608C269.757 13.8053 268.568 14.8009 267.533 15.8794C266.499 16.958 265.548 18.2577 265.321 19.7511C265.094 21.2445 265.83 22.9591 267.262 23.4403" stroke="#5B8ECD" stroke-width="1.25" stroke-linecap="round" stroke-linejoin="round"/>
<path d="M289.148 4.54651C289.822 6.01158 290.267 7.57083 290.47 9.1704C290.57 9.97323 290.487 10.7883 290.228 11.5545C289.968 12.3208 289.539 13.0184 288.971 13.5952" stroke="#5B8ECD" stroke-width="1.25" stroke-linecap="round" stroke-linejoin="round"/>
<path d="M284.502 190.548L284.364 174.873H286.958L284.502 190.548Z" fill="#3CA69B"/>
</svg>
