<svg width="56" height="56" viewBox="0 0 56 56" fill="none" xmlns="http://www.w3.org/2000/svg">
<path d="M51.3337 0.93335H4.667C2.60514 0.93335 0.93367 2.60482 0.93367 4.66668V51.3334C0.93367 53.3952 2.60514 55.0667 4.667 55.0667H51.3337C53.3955 55.0667 55.067 53.3952 55.067 51.3334V4.66668C55.067 2.60482 53.3955 0.93335 51.3337 0.93335Z" fill="#B5FFEA"/>
<path d="M48.5337 0.93335H4.667C2.60514 0.93335 0.93367 2.60482 0.93367 4.66668V51.3334C0.93367 53.3952 2.60514 55.0667 4.667 55.0667H48.5337C50.5955 55.0667 52.267 53.3952 52.267 51.3334V4.66668C52.267 2.60482 50.5955 0.93335 48.5337 0.93335Z" fill="#D3F4EB"/>
<path d="M42.9332 17.7334H33.5998C32.5689 17.7334 31.7332 18.5691 31.7332 19.6001V28.9334C31.7332 29.9643 32.5689 30.8001 33.5998 30.8001H42.9332C43.9641 30.8001 44.7998 29.9643 44.7998 28.9334V19.6001C44.7998 18.5691 43.9641 17.7334 42.9332 17.7334Z" fill="white"/>
<path d="M55.067 4.66668V12.1334H0.93367L0.93367 4.66668C0.933398 3.67646 1.32664 2.72671 2.02684 2.02652C2.72703 1.32632 3.67678 0.933077 4.667 0.93335H51.3337C52.3239 0.933077 53.2736 1.32632 53.9738 2.02652C54.674 2.72671 55.0673 3.67646 55.067 4.66668Z" fill="#4EBFA0"/>
<path d="M52.267 4.66668V12.1334H0.93367L0.93367 4.66668C0.933398 3.67646 1.32664 2.72671 2.02684 2.02652C2.72703 1.32632 3.67678 0.933077 4.667 0.93335H48.5337C49.5239 0.933077 50.4736 1.32632 51.1738 2.02652C51.874 2.72671 52.2673 3.67646 52.267 4.66668Z" fill="#63CCAF"/>
<path d="M6.533 8.40008C7.56394 8.40008 8.39967 7.56435 8.39967 6.53342C8.39967 5.50248 7.56394 4.66675 6.533 4.66675C5.50207 4.66675 4.66634 5.50248 4.66634 6.53342C4.66634 7.56435 5.50207 8.40008 6.533 8.40008Z" fill="#D3F4EB"/>
<path d="M13.9998 8.40008C15.0308 8.40008 15.8665 7.56435 15.8665 6.53342C15.8665 5.50248 15.0308 4.66675 13.9998 4.66675C12.9689 4.66675 12.1332 5.50248 12.1332 6.53342C12.1332 7.56435 12.9689 8.40008 13.9998 8.40008Z" fill="#D3F4EB"/>
<path d="M21.4667 8.40008C22.4976 8.40008 23.3333 7.56435 23.3333 6.53342C23.3333 5.50248 22.4976 4.66675 21.4667 4.66675C20.4357 4.66675 19.6 5.50248 19.6 6.53342C19.6 7.56435 20.4357 8.40008 21.4667 8.40008Z" fill="#D3F4EB"/>
<path d="M16.8003 31.7334C20.9241 31.7334 24.267 28.3905 24.267 24.2667C24.267 20.143 20.9241 16.8 16.8003 16.8C12.6766 16.8 9.33366 20.143 9.33366 24.2667C9.33366 28.3905 12.6766 31.7334 16.8003 31.7334Z" fill="#B5FFEA"/>
<path d="M16.8003 50.3999C20.9241 50.3999 24.267 47.057 24.267 42.9332C24.267 38.8095 20.9241 35.4666 16.8003 35.4666C12.6766 35.4666 9.33366 38.8095 9.33366 42.9332C9.33366 47.057 12.6766 50.3999 16.8003 50.3999Z" fill="#B5FFEA"/>
<path d="M42.9332 36.3999H33.5998C32.5689 36.3999 31.7332 37.2356 31.7332 38.2666V47.5999C31.7332 48.6308 32.5689 49.4666 33.5998 49.4666H42.9332C43.9641 49.4666 44.7998 48.6308 44.7998 47.5999V38.2666C44.7998 37.2356 43.9641 36.3999 42.9332 36.3999Z" fill="white"/>
<path d="M4.667 55.0667H7.467C6.47678 55.067 5.52703 54.6737 4.82684 53.9735C4.12664 53.2733 3.7334 52.3236 3.73367 51.3334V4.66668C3.7334 3.67646 4.12664 2.72671 4.82684 2.02652C5.52703 1.32632 6.47678 0.933077 7.467 0.93335L4.667 0.93335C3.67678 0.933077 2.72703 1.32632 2.02684 2.02652C1.32664 2.72671 0.933398 3.67646 0.93367 4.66668V51.3334C0.933398 52.3236 1.32664 53.2733 2.02684 53.9735C2.72703 54.6737 3.67678 55.067 4.667 55.0667Z" fill="white"/>
<path d="M0 51.3334V39.2001V4.66675H1.86667V39.2001V51.3334H0Z" fill="white"/>
<path d="M0.933333 46.6667C0.418485 46.6682 0.0014866 47.0852 0 47.6001V51.3334H1.86667V47.6001C1.86518 47.0852 1.44818 46.6682 0.933333 46.6667Z" fill="#3CA69B"/>
<path d="M1.86667 4.66675H0V40.1334C0 40.6489 0.417868 41.0667 0.933333 41.0667C1.4488 41.0667 1.86667 40.6489 1.86667 40.1334V4.66675Z" fill="#3CA69B"/>
<path d="M0 43.8667C0.00369497 44.1137 0.100335 44.3503 0.270667 44.5293L0.410667 44.6413C0.462706 44.6766 0.519198 44.7049 0.578667 44.7253C0.631549 44.7523 0.68818 44.7712 0.746667 44.7813C0.808387 44.7918 0.870757 44.7981 0.933333 44.8C1.18045 44.7966 1.41714 44.6999 1.596 44.5293C1.94829 44.1578 1.94829 43.5756 1.596 43.204C1.50672 43.1197 1.40219 43.0532 1.288 43.008C1.17579 42.9602 1.0553 42.9348 0.933333 42.9333C0.686289 42.9371 0.449718 43.0338 0.270667 43.204C0.100414 43.3831 0.0037864 43.6196 0 43.8667H0Z" fill="#3CA69B"/>
<path d="M51.3333 56H4.66667C2.0906 55.997 0.0030344 53.9094 0 51.3333C0 50.8179 0.417868 50.4 0.933333 50.4C1.4488 50.4 1.86667 50.8179 1.86667 51.3333C1.86836 52.879 3.12097 54.1316 4.66667 54.1333H51.3333C52.879 54.1316 54.1316 52.879 54.1333 51.3333V4.66667C54.1316 3.12097 52.879 1.86836 51.3333 1.86667H4.66667C3.12097 1.86836 1.86836 3.12097 1.86667 4.66667C1.86667 5.18213 1.4488 5.6 0.933333 5.6C0.417868 5.6 0 5.18213 0 4.66667C0.0030344 2.0906 2.0906 0.0030344 4.66667 0H51.3333C53.9094 0.0030344 55.997 2.0906 56 4.66667V51.3333C55.997 53.9094 53.9094 55.997 51.3333 56Z" fill="#3CA69B"/>
<path d="M6.53267 9.3334C4.98627 9.3334 3.73267 8.0798 3.73267 6.5334C3.73267 4.987 4.98627 3.7334 6.53267 3.7334C8.07906 3.7334 9.33267 4.987 9.33267 6.5334C9.33097 8.07909 8.07836 9.3317 6.53267 9.3334ZM6.53267 5.60007C6.0172 5.60007 5.59933 6.01793 5.59933 6.5334C5.59933 7.04886 6.0172 7.46673 6.53267 7.46673C7.04813 7.46673 7.466 7.04886 7.466 6.5334C7.46554 6.01812 7.04794 5.60053 6.53267 5.60007Z" fill="#3CA69B"/>
<path d="M13.9995 9.3334C12.4531 9.3334 11.1995 8.0798 11.1995 6.5334C11.1995 4.987 12.4531 3.7334 13.9995 3.7334C15.5459 3.7334 16.7995 4.987 16.7995 6.5334C16.7978 8.07909 15.5452 9.3317 13.9995 9.3334ZM13.9995 5.60007C13.484 5.60007 13.0662 6.01793 13.0662 6.5334C13.0662 7.04886 13.484 7.46673 13.9995 7.46673C14.515 7.46673 14.9328 7.04886 14.9328 6.5334C14.9324 6.01812 14.5148 5.60053 13.9995 5.60007Z" fill="#3CA69B"/>
<path d="M21.4663 9.3334C19.9199 9.3334 18.6663 8.0798 18.6663 6.5334C18.6663 4.987 19.9199 3.7334 21.4663 3.7334C23.0127 3.7334 24.2663 4.987 24.2663 6.5334C24.2646 8.07909 23.012 9.3317 21.4663 9.3334ZM21.4663 5.60007C20.9509 5.60007 20.533 6.01793 20.533 6.5334C20.533 7.04886 20.9509 7.46673 21.4663 7.46673C21.9818 7.46673 22.3997 7.04886 22.3997 6.5334C22.3992 6.01812 21.9816 5.60053 21.4663 5.60007Z" fill="#3CA69B"/>
<path d="M55.0667 13.0666H0.933333C0.417868 13.0666 0 12.6488 0 12.1333C0 11.6178 0.417868 11.2 0.933333 11.2H55.0667C55.5821 11.2 56 11.6178 56 12.1333C56 12.6488 55.5821 13.0666 55.0667 13.0666Z" fill="#3CA69B"/>
<path d="M16.8 32.6667C12.1608 32.6667 8.39999 28.9059 8.39999 24.2667C8.39999 19.6275 12.1608 15.8667 16.8 15.8667C21.4392 15.8667 25.2 19.6275 25.2 24.2667C25.1948 28.9038 21.4371 32.6616 16.8 32.6667ZM16.8 17.7334C13.1917 17.7334 10.2667 20.6584 10.2667 24.2667C10.2667 27.875 13.1917 30.8 16.8 30.8C20.4083 30.8 23.3333 27.875 23.3333 24.2667C23.3292 20.6602 20.4065 17.7375 16.8 17.7334Z" fill="#3CA69B"/>
<path d="M16.8 51.3334C12.1608 51.3334 8.39999 47.5726 8.39999 42.9334C8.39999 38.2943 12.1608 34.5334 16.8 34.5334C21.4392 34.5334 25.2 38.2943 25.2 42.9334C25.1948 47.5705 21.4371 51.3283 16.8 51.3334ZM16.8 36.4001C13.1917 36.4001 10.2667 39.3252 10.2667 42.9334C10.2667 46.5417 13.1917 49.4668 16.8 49.4668C20.4083 49.4668 23.3333 46.5417 23.3333 42.9334C23.3292 39.3269 20.4065 36.4043 16.8 36.4001Z" fill="#3CA69B"/>
<path d="M13.0665 24.2666C13.582 24.2666 13.9998 23.8487 13.9998 23.3332C13.9998 22.8178 13.582 22.3999 13.0665 22.3999C12.551 22.3999 12.1332 22.8178 12.1332 23.3332C12.1332 23.8487 12.551 24.2666 13.0665 24.2666Z" fill="#3CA69B"/>
<path d="M20.5333 24.2666C21.0488 24.2666 21.4667 23.8487 21.4667 23.3332C21.4667 22.8178 21.0488 22.3999 20.5333 22.3999C20.0179 22.3999 19.6 22.8178 19.6 23.3332C19.6 23.8487 20.0179 24.2666 20.5333 24.2666Z" fill="#3CA69B"/>
<path d="M16.7995 28.0001C15.6748 27.9992 14.6594 27.3265 14.22 26.2911C14.0187 25.8164 14.2403 25.2684 14.715 25.067C15.1897 24.8657 15.7377 25.0873 15.939 25.562C16.0846 25.9084 16.4237 26.1337 16.7995 26.1337C17.1752 26.1337 17.5143 25.9084 17.6599 25.562C17.8613 25.0873 18.4093 24.8657 18.884 25.067C19.3587 25.2684 19.5803 25.8164 19.3789 26.2911C19.238 26.6231 19.0343 26.9249 18.7792 27.1798C18.2546 27.7056 17.5422 28.0008 16.7995 28.0001Z" fill="#3CA69B"/>
<path d="M13.0665 42.9333C13.582 42.9333 13.9998 42.5154 13.9998 42C13.9998 41.4845 13.582 41.0667 13.0665 41.0667C12.551 41.0667 12.1332 41.4845 12.1332 42C12.1332 42.5154 12.551 42.9333 13.0665 42.9333Z" fill="#3CA69B"/>
<path d="M20.5333 42.9333C21.0488 42.9333 21.4667 42.5154 21.4667 42C21.4667 41.4845 21.0488 41.0667 20.5333 41.0667C20.0179 41.0667 19.6 41.4845 19.6 42C19.6 42.5154 20.0179 42.9333 20.5333 42.9333Z" fill="#3CA69B"/>
<path d="M18.5194 46.8741C18.1447 46.8737 17.8064 46.6496 17.6599 46.3047C17.5143 45.9583 17.1752 45.733 16.7995 45.733C16.4237 45.733 16.0846 45.9583 15.939 46.3047C15.7377 46.7794 15.1897 47.001 14.715 46.7997C14.2403 46.5983 14.0187 46.0503 14.22 45.5756C14.361 45.2436 14.5646 44.9418 14.8198 44.6869C15.0746 44.4307 15.3771 44.2268 15.7103 44.0867C16.4071 43.795 17.1918 43.795 17.8887 44.0867C18.2222 44.227 18.525 44.4312 18.7801 44.6878C19.0349 44.9426 19.2382 45.244 19.3789 45.5756C19.5007 45.864 19.47 46.1942 19.2972 46.4552C19.1244 46.7162 18.8324 46.8734 18.5194 46.874V46.8741Z" fill="#3CA69B"/>
<path d="M42.9338 31.7334H33.6005C32.0548 31.7317 30.8022 30.4791 30.8005 28.9334V19.6001C30.8022 18.0544 32.0548 16.8017 33.6005 16.8H42.9338C43.4493 16.8 43.8672 17.2179 43.8672 17.7334C43.8672 18.2488 43.4493 18.6667 42.9338 18.6667H33.6005C33.0852 18.6672 32.6676 19.0848 32.6672 19.6001V28.9334C32.6676 29.4487 33.0852 29.8663 33.6005 29.8667H42.9338C43.4491 29.8663 43.8667 29.4487 43.8672 28.9334V25.2001C43.8672 24.6846 44.285 24.2667 44.8005 24.2667C45.316 24.2667 45.7338 24.6846 45.7338 25.2001V28.9334C45.7321 30.4791 44.4795 31.7317 42.9338 31.7334Z" fill="#3CA69B"/>
<path d="M42.9338 50.3999H33.6005C32.0548 50.3982 30.8022 49.1456 30.8005 47.5999V38.2666C30.8022 36.7209 32.0548 35.4683 33.6005 35.4666H42.9338C44.4795 35.4683 45.7321 36.7209 45.7338 38.2666V47.5999C45.7321 49.1456 44.4795 50.3982 42.9338 50.3999ZM33.6005 37.3332C33.0852 37.3337 32.6676 37.7513 32.6672 38.2666V47.5999C32.6676 48.1152 33.0852 48.5328 33.6005 48.5332H42.9338C43.4491 48.5328 43.8667 48.1152 43.8672 47.5999V38.2666C43.8667 37.7513 43.4491 37.3337 42.9338 37.3332H33.6005Z" fill="#3CA69B"/>
<path d="M38.267 28C38.0194 28.0003 37.7819 27.9019 37.6071 27.7266L34.8071 24.9266C34.4534 24.5604 34.4585 23.9782 34.8185 23.6182C35.1785 23.2582 35.7606 23.2531 36.1268 23.6069L38.267 25.7469L46.9404 17.0735C47.3067 16.7198 47.8888 16.7249 48.2488 17.0849C48.6088 17.4449 48.6139 18.027 48.2602 18.3933L38.9268 27.7266C38.752 27.9019 38.5146 28.0003 38.267 28Z" fill="#3CA69B"/>
</svg>
