<svg width="34" height="40" viewBox="0 0 34 40" fill="none" xmlns="http://www.w3.org/2000/svg">
<path d="M17 21.875C14.3492 21.875 11.8677 23.3006 10.5236 25.5955C10.3601 25.8747 10.4538 26.2337 10.733 26.3972C11.0123 26.5608 11.3712 26.467 11.5348 26.1877C12.6695 24.2503 14.7636 23.0469 17 23.0469C20.4894 23.0469 23.3281 25.8857 23.3281 29.375C23.3281 32.8643 20.4894 35.7031 17 35.7031C13.5106 35.7031 10.6719 32.8643 10.6719 29.375C10.6719 29.1009 10.6896 28.8252 10.7246 28.5555C10.7663 28.2346 10.5399 27.9407 10.219 27.8991C9.89805 27.8566 9.60414 28.0837 9.5625 28.4047C9.52102 28.7243 9.5 29.0508 9.5 29.3751C9.5 33.5106 12.8645 36.8751 17 36.8751C21.1355 36.8751 24.5 33.5106 24.5 29.3751C24.5 25.2395 21.1355 21.875 17 21.875ZM17.7031 24.2188H16.2969C15.7153 24.2188 15.2422 24.6919 15.2422 25.2734V27.6172H12.8984C12.3169 27.6172 11.8438 28.0903 11.8438 28.6719V30.0781C11.8438 30.6597 12.3169 31.1328 12.8984 31.1328H15.2422V33.4766C15.2422 34.0581 15.7153 34.5312 16.2969 34.5312H17.7031C18.2847 34.5312 18.7578 34.0581 18.7578 33.4766V31.1328H21.1016C21.6831 31.1328 22.1562 30.6597 22.1562 30.0781V28.6719C22.1562 28.0903 21.6831 27.6172 21.1016 27.6172H18.7578V25.2734C18.7578 24.6919 18.2847 24.2188 17.7031 24.2188ZM20.9844 28.7891V29.9609H18.4062C17.9539 29.9609 17.5859 30.3289 17.5859 30.7812V33.3594H16.4141V30.7812C16.4141 30.3289 16.0461 29.9609 15.5938 29.9609H13.0156V28.7891H15.5938C16.0461 28.7891 16.4141 28.4211 16.4141 27.9688V25.3906H17.5859V27.9688C17.5859 28.4211 17.9539 28.7891 18.4062 28.7891H20.9844ZM25.6719 4.88281C25.6719 4.12898 25.0585 3.51562 24.3047 3.51562H9.69531C8.94148 3.51562 8.32812 4.12898 8.32812 4.88281V6.28906C8.32812 7.04289 8.94148 7.65625 9.69531 7.65625H24.3047C25.0585 7.65625 25.6719 7.04289 25.6719 6.28906V4.88281ZM24.5 6.28906C24.5 6.3968 24.4123 6.48438 24.3047 6.48438H9.69531C9.58766 6.48438 9.5 6.3968 9.5 6.28906V4.88281C9.5 4.77508 9.58766 4.6875 9.69531 4.6875H24.3047C24.4123 4.6875 24.5 4.77508 24.5 4.88281V6.28906ZM30.8672 18.75H17.0825C16.4934 18.75 15.9466 18.4574 15.6199 17.9672L14.6677 16.539C14.1231 15.7221 13.2119 15.2344 12.23 15.2344H4.91172V2.92969C4.91172 1.96047 5.70023 1.17188 6.66953 1.17188H27.3305C28.2998 1.17188 29.0883 1.96047 29.0883 2.92969V16.6016C29.0883 16.9252 29.3506 17.1875 29.6742 17.1875C29.9978 17.1875 30.2602 16.9252 30.2602 16.6016V2.92969C30.2602 1.31422 28.9459 0 27.3305 0H6.66953C5.05406 0 3.73984 1.31422 3.73984 2.92969V15.2344H3.13281C1.51734 15.2344 0.203125 16.5486 0.203125 18.1641V37.0703C0.203125 38.6858 1.51734 40 3.13281 40H30.8672C32.4827 40 33.7969 38.6858 33.7969 37.0703V21.6797C33.7969 20.0642 32.4827 18.75 30.8672 18.75ZM32.625 37.0703C32.625 38.0395 31.8365 38.8281 30.8672 38.8281H3.13281C2.16352 38.8281 1.375 38.0395 1.375 37.0703V18.1641C1.375 17.1948 2.16352 16.4062 3.13281 16.4062H12.23C12.8191 16.4062 13.3659 16.6988 13.6926 17.1891L14.6448 18.6173C15.1894 19.4341 16.1006 19.9219 17.0825 19.9219H30.8672C31.8365 19.9219 32.625 20.7105 32.625 21.6797V37.0703ZM25.0859 12.3438H8.91406C8.59047 12.3438 8.32812 12.606 8.32812 12.9297C8.32812 13.2534 8.59047 13.5156 8.91406 13.5156H25.0859C25.4095 13.5156 25.6719 13.2534 25.6719 12.9297C25.6719 12.606 25.4095 12.3438 25.0859 12.3438ZM25.0859 10H8.91406C8.59047 10 8.32812 10.2623 8.32812 10.5859C8.32812 10.9096 8.59047 11.1719 8.91406 11.1719H25.0859C25.4095 11.1719 25.6719 10.9096 25.6719 10.5859C25.6719 10.2623 25.4095 10 25.0859 10Z" fill="#028F68" stroke="#028F68" stroke-width="0.2"/>
</svg>
